<svg width="305" height="139" viewBox="0 0 305 139" fill="none" xmlns="http://www.w3.org/2000/svg">
<circle cx="3.30953" cy="102.595" r="3.30953" transform="rotate(-90 3.30953 102.595)" fill="#505050"/>
<circle cx="3.31001" cy="135.69" r="3.30953" transform="rotate(-90 3.31001 135.69)" fill="#505050"/>
<circle cx="3.30953" cy="36.4047" r="3.30953" transform="rotate(-90 3.30953 36.4047)" fill="#505050"/>
<circle cx="3.30953" cy="3.30951" r="3.30953" transform="rotate(-90 3.30953 3.30951)" fill="#505050"/>
<circle cx="3.30953" cy="69.5005" r="3.30953" transform="rotate(-90 3.30953 69.5005)" fill="#505050"/>
<circle cx="36.4047" cy="102.595" r="3.30953" transform="rotate(-90 36.4047 102.595)" fill="#505050"/>
<circle cx="36.4047" cy="135.69" r="3.30953" transform="rotate(-90 36.4047 135.69)" fill="#505050"/>
<circle cx="36.4047" cy="36.4047" r="3.30953" transform="rotate(-90 36.4047 36.4047)" fill="#505050"/>
<circle cx="36.4047" cy="3.30951" r="3.30953" transform="rotate(-90 36.4047 3.30951)" fill="#505050"/>
<circle cx="36.4047" cy="69.5005" r="3.30953" transform="rotate(-90 36.4047 69.5005)" fill="#505050"/>
<circle cx="69.5" cy="102.595" r="3.30953" transform="rotate(-90 69.5 102.595)" fill="#505050"/>
<circle cx="69.5" cy="135.69" r="3.30953" transform="rotate(-90 69.5 135.69)" fill="#505050"/>
<circle cx="69.5" cy="36.4047" r="3.30953" transform="rotate(-90 69.5 36.4047)" fill="#505050"/>
<circle cx="69.5" cy="3.30951" r="3.30953" transform="rotate(-90 69.5 3.30951)" fill="#505050"/>
<circle cx="69.5" cy="69.5005" r="3.30953" transform="rotate(-90 69.5 69.5005)" fill="#505050"/>
<circle cx="102.595" cy="102.595" r="3.30953" transform="rotate(-90 102.595 102.595)" fill="#505050"/>
<circle cx="102.595" cy="135.69" r="3.30953" transform="rotate(-90 102.595 135.69)" fill="#505050"/>
<circle cx="102.595" cy="36.4047" r="3.30953" transform="rotate(-90 102.595 36.4047)" fill="#505050"/>
<circle cx="102.595" cy="3.30951" r="3.30953" transform="rotate(-90 102.595 3.30951)" fill="#505050"/>
<circle cx="102.595" cy="69.5005" r="3.30953" transform="rotate(-90 102.595 69.5005)" fill="#505050"/>
<circle cx="135.69" cy="102.595" r="3.30953" transform="rotate(-90 135.69 102.595)" fill="#505050"/>
<circle cx="135.69" cy="135.69" r="3.30953" transform="rotate(-90 135.69 135.69)" fill="#505050"/>
<circle cx="135.69" cy="36.4047" r="3.30953" transform="rotate(-90 135.69 36.4047)" fill="#505050"/>
<circle cx="135.69" cy="3.30951" r="3.30953" transform="rotate(-90 135.69 3.30951)" fill="#505050"/>
<circle cx="135.69" cy="69.5005" r="3.30953" transform="rotate(-90 135.69 69.5005)" fill="#505050"/>
<circle cx="168.786" cy="102.595" r="3.30953" transform="rotate(-90 168.786 102.595)" fill="#505050"/>
<circle cx="168.786" cy="135.69" r="3.30953" transform="rotate(-90 168.786 135.69)" fill="#505050"/>
<circle cx="168.786" cy="36.4047" r="3.30953" transform="rotate(-90 168.786 36.4047)" fill="#505050"/>
<circle cx="168.786" cy="3.30951" r="3.30953" transform="rotate(-90 168.786 3.30951)" fill="#505050"/>
<circle cx="168.786" cy="69.5005" r="3.30953" transform="rotate(-90 168.786 69.5005)" fill="#505050"/>
<circle cx="201.881" cy="102.595" r="3.30953" transform="rotate(-90 201.881 102.595)" fill="#505050"/>
<circle cx="201.881" cy="135.69" r="3.30953" transform="rotate(-90 201.881 135.69)" fill="#505050"/>
<circle cx="201.881" cy="36.4047" r="3.30953" transform="rotate(-90 201.881 36.4047)" fill="#505050"/>
<circle cx="201.881" cy="3.30951" r="3.30953" transform="rotate(-90 201.881 3.30951)" fill="#505050"/>
<circle cx="201.881" cy="69.5005" r="3.30953" transform="rotate(-90 201.881 69.5005)" fill="#505050"/>
<circle cx="234.977" cy="102.595" r="3.30953" transform="rotate(-90 234.977 102.595)" fill="#505050"/>
<circle cx="234.977" cy="135.69" r="3.30953" transform="rotate(-90 234.977 135.69)" fill="#505050"/>
<circle cx="234.977" cy="36.4047" r="3.30953" transform="rotate(-90 234.977 36.4047)" fill="#505050"/>
<circle cx="234.977" cy="3.30951" r="3.30953" transform="rotate(-90 234.977 3.30951)" fill="#505050"/>
<circle cx="234.977" cy="69.5005" r="3.30953" transform="rotate(-90 234.977 69.5005)" fill="#505050"/>
<circle cx="268.072" cy="102.595" r="3.30953" transform="rotate(-90 268.072 102.595)" fill="#505050"/>
<circle cx="268.072" cy="135.69" r="3.30953" transform="rotate(-90 268.072 135.69)" fill="#505050"/>
<circle cx="268.072" cy="36.4047" r="3.30953" transform="rotate(-90 268.072 36.4047)" fill="#505050"/>
<circle cx="268.072" cy="3.30951" r="3.30953" transform="rotate(-90 268.072 3.30951)" fill="#505050"/>
<circle cx="268.072" cy="69.5005" r="3.30953" transform="rotate(-90 268.072 69.5005)" fill="#505050"/>
<circle cx="301.167" cy="102.595" r="3.30953" transform="rotate(-90 301.167 102.595)" fill="#505050"/>
<circle cx="301.167" cy="135.69" r="3.30953" transform="rotate(-90 301.167 135.69)" fill="#505050"/>
<circle cx="301.167" cy="36.4047" r="3.30953" transform="rotate(-90 301.167 36.4047)" fill="#505050"/>
<circle cx="301.167" cy="3.30951" r="3.30953" transform="rotate(-90 301.167 3.30951)" fill="#505050"/>
<circle cx="301.167" cy="69.5005" r="3.30953" transform="rotate(-90 301.167 69.5005)" fill="#505050"/>
</svg>
