<svg width="35" height="290" viewBox="0 0 35 290" fill="none" xmlns="http://www.w3.org/2000/svg">
<circle r="2.5" transform="matrix(-1 0 0 1 17.5 2.5)" fill="#352E2D"/>
<circle r="2.5" transform="matrix(-1 0 0 1 2.5 2.5)" fill="#352E2D"/>
<circle r="2.5" transform="matrix(-1 0 0 1 32.5 2.5)" fill="#352E2D"/>
<circle r="2.5" transform="matrix(-1 0 0 1 17.5 17.5)" fill="#352E2D"/>
<circle r="2.5" transform="matrix(-1 0 0 1 2.5 17.5)" fill="#352E2D"/>
<circle r="2.5" transform="matrix(-1 0 0 1 32.5 17.5)" fill="#352E2D"/>
<circle r="2.5" transform="matrix(-1 0 0 1 17.5 32.5)" fill="#352E2D"/>
<circle r="2.5" transform="matrix(-1 0 0 1 2.5 32.5)" fill="#352E2D"/>
<circle r="2.5" transform="matrix(-1 0 0 1 32.5 32.5)" fill="#352E2D"/>
<circle r="2.5" transform="matrix(-1 0 0 1 17.5 47.5)" fill="#352E2D"/>
<circle r="2.5" transform="matrix(-1 0 0 1 2.5 47.5)" fill="#352E2D"/>
<circle r="2.5" transform="matrix(-1 0 0 1 32.5 47.5)" fill="#352E2D"/>
<circle r="2.5" transform="matrix(-1 0 0 1 17.5 62.5)" fill="#352E2D"/>
<circle r="2.5" transform="matrix(-1 0 0 1 2.5 62.5)" fill="#352E2D"/>
<circle r="2.5" transform="matrix(-1 0 0 1 32.5 62.5)" fill="#352E2D"/>
<circle r="2.5" transform="matrix(-1 0 0 1 17.5 77.5)" fill="#352E2D"/>
<circle r="2.5" transform="matrix(-1 0 0 1 2.5 77.5)" fill="#352E2D"/>
<circle r="2.5" transform="matrix(-1 0 0 1 32.5 77.5)" fill="#352E2D"/>
<circle r="2.5" transform="matrix(-1 0 0 1 17.5 92.5)" fill="#352E2D"/>
<circle r="2.5" transform="matrix(-1 0 0 1 2.5 92.5)" fill="#352E2D"/>
<circle r="2.5" transform="matrix(-1 0 0 1 32.5 92.5)" fill="#352E2D"/>
<circle r="2.5" transform="matrix(-1 0 0 1 17.5 107.5)" fill="#352E2D"/>
<circle r="2.5" transform="matrix(-1 0 0 1 2.5 107.5)" fill="#352E2D"/>
<circle r="2.5" transform="matrix(-1 0 0 1 32.5 107.5)" fill="#352E2D"/>
<circle r="2.5" transform="matrix(-1 0 0 1 17.5 122.5)" fill="#352E2D"/>
<circle r="2.5" transform="matrix(-1 0 0 1 2.5 122.5)" fill="#352E2D"/>
<circle r="2.5" transform="matrix(-1 0 0 1 32.5 122.5)" fill="#352E2D"/>
<circle r="2.5" transform="matrix(-1 0 0 1 17.5 137.5)" fill="#352E2D"/>
<circle r="2.5" transform="matrix(-1 0 0 1 2.5 137.5)" fill="#352E2D"/>
<circle r="2.5" transform="matrix(-1 0 0 1 32.5 137.5)" fill="#352E2D"/>
<circle r="2.5" transform="matrix(-1 0 0 1 17.5 152.5)" fill="#352E2D"/>
<circle r="2.5" transform="matrix(-1 0 0 1 2.5 152.5)" fill="#352E2D"/>
<circle r="2.5" transform="matrix(-1 0 0 1 32.5 152.5)" fill="#352E2D"/>
<circle r="2.5" transform="matrix(-1 0 0 1 17.5 167.5)" fill="#352E2D"/>
<circle r="2.5" transform="matrix(-1 0 0 1 2.5 167.5)" fill="#352E2D"/>
<circle r="2.5" transform="matrix(-1 0 0 1 32.5 167.5)" fill="#352E2D"/>
<circle r="2.5" transform="matrix(-1 0 0 1 17.5 182.5)" fill="#352E2D"/>
<circle r="2.5" transform="matrix(-1 0 0 1 2.5 182.5)" fill="#352E2D"/>
<circle r="2.5" transform="matrix(-1 0 0 1 32.5 182.5)" fill="#352E2D"/>
<circle r="2.5" transform="matrix(-1 0 0 1 17.5 197.5)" fill="#352E2D"/>
<circle r="2.5" transform="matrix(-1 0 0 1 2.5 197.5)" fill="#352E2D"/>
<circle r="2.5" transform="matrix(-1 0 0 1 32.5 197.5)" fill="#352E2D"/>
<circle r="2.5" transform="matrix(-1 0 0 1 17.5 212.5)" fill="#352E2D"/>
<circle r="2.5" transform="matrix(-1 0 0 1 2.5 212.5)" fill="#352E2D"/>
<circle r="2.5" transform="matrix(-1 0 0 1 32.5 212.5)" fill="#352E2D"/>
<circle r="2.5" transform="matrix(-1 0 0 1 17.5 227.5)" fill="#352E2D"/>
<circle r="2.5" transform="matrix(-1 0 0 1 2.5 227.5)" fill="#352E2D"/>
<circle r="2.5" transform="matrix(-1 0 0 1 32.5 227.5)" fill="#352E2D"/>
<circle r="2.5" transform="matrix(-1 0 0 1 17.5 242.5)" fill="#352E2D"/>
<circle r="2.5" transform="matrix(-1 0 0 1 2.5 242.5)" fill="#352E2D"/>
<circle r="2.5" transform="matrix(-1 0 0 1 32.5 242.5)" fill="#352E2D"/>
<circle r="2.5" transform="matrix(-1 0 0 1 17.5 257.5)" fill="#352E2D"/>
<circle r="2.5" transform="matrix(-1 0 0 1 2.5 257.5)" fill="#352E2D"/>
<circle r="2.5" transform="matrix(-1 0 0 1 32.5 257.5)" fill="#352E2D"/>
<circle r="2.5" transform="matrix(-1 0 0 1 17.5 272.5)" fill="#352E2D"/>
<circle r="2.5" transform="matrix(-1 0 0 1 2.5 272.5)" fill="#352E2D"/>
<circle r="2.5" transform="matrix(-1 0 0 1 32.5 272.5)" fill="#352E2D"/>
<circle r="2.5" transform="matrix(-1 0 0 1 17.5 287.5)" fill="#352E2D"/>
<circle r="2.5" transform="matrix(-1 0 0 1 2.5 287.5)" fill="#352E2D"/>
<circle r="2.5" transform="matrix(-1 0 0 1 32.5 287.5)" fill="#352E2D"/>
</svg>
