<svg width="80" height="312" viewBox="0 0 80 312" fill="none" xmlns="http://www.w3.org/2000/svg">
<rect width="80" height="312" fill="white"/>
<circle cx="22.5" cy="13.5" r="2.5" fill="#352E2D"/>
<circle cx="7.5" cy="13.5" r="2.5" fill="#352E2D"/>
<circle cx="52.5" cy="13.5" r="2.5" fill="#352E2D"/>
<circle cx="67.5" cy="13.5" r="2.5" fill="#352E2D"/>
<circle cx="37.5" cy="13.5" r="2.5" fill="#352E2D"/>
<circle cx="22.5" cy="28.5" r="2.5" fill="#352E2D"/>
<circle cx="7.5" cy="28.5" r="2.5" fill="#352E2D"/>
<circle cx="52.5" cy="28.5" r="2.5" fill="#352E2D"/>
<circle cx="67.5" cy="28.5" r="2.5" fill="#352E2D"/>
<circle cx="37.5" cy="28.5" r="2.5" fill="#352E2D"/>
<circle cx="22.5" cy="43.5" r="2.5" fill="#352E2D"/>
<circle cx="7.5" cy="43.5" r="2.5" fill="#352E2D"/>
<circle cx="52.5" cy="43.5" r="2.5" fill="#352E2D"/>
<circle cx="67.5" cy="43.5" r="2.5" fill="#352E2D"/>
<circle cx="37.5" cy="43.5" r="2.5" fill="#352E2D"/>
<circle cx="22.5" cy="58.5" r="2.5" fill="#352E2D"/>
<circle cx="7.5" cy="58.5" r="2.5" fill="#352E2D"/>
<circle cx="52.5" cy="58.5" r="2.5" fill="#352E2D"/>
<circle cx="67.5" cy="58.5" r="2.5" fill="#352E2D"/>
<circle cx="37.5" cy="58.5" r="2.5" fill="#352E2D"/>
<circle cx="22.5" cy="73.5" r="2.5" fill="#352E2D"/>
<circle cx="7.5" cy="73.5" r="2.5" fill="#352E2D"/>
<circle cx="52.5" cy="73.5" r="2.5" fill="#352E2D"/>
<circle cx="67.5" cy="73.5" r="2.5" fill="#352E2D"/>
<circle cx="37.5" cy="73.5" r="2.5" fill="#352E2D"/>
<circle cx="22.5" cy="88.5" r="2.5" fill="#352E2D"/>
<circle cx="7.5" cy="88.5" r="2.5" fill="#352E2D"/>
<circle cx="52.5" cy="88.5" r="2.5" fill="#352E2D"/>
<circle cx="67.5" cy="88.5" r="2.5" fill="#352E2D"/>
<circle cx="37.5" cy="88.5" r="2.5" fill="#352E2D"/>
<circle cx="22.5" cy="103.5" r="2.5" fill="#352E2D"/>
<circle cx="7.5" cy="103.5" r="2.5" fill="#352E2D"/>
<circle cx="52.5" cy="103.5" r="2.5" fill="#352E2D"/>
<circle cx="67.5" cy="103.5" r="2.5" fill="#352E2D"/>
<circle cx="37.5" cy="103.5" r="2.5" fill="#352E2D"/>
<circle cx="22.5" cy="118.5" r="2.5" fill="#352E2D"/>
<circle cx="7.5" cy="118.5" r="2.5" fill="#352E2D"/>
<circle cx="52.5" cy="118.5" r="2.5" fill="#352E2D"/>
<circle cx="67.5" cy="118.5" r="2.5" fill="#352E2D"/>
<circle cx="37.5" cy="118.5" r="2.5" fill="#352E2D"/>
<circle cx="22.5" cy="133.5" r="2.5" fill="#352E2D"/>
<circle cx="7.5" cy="133.5" r="2.5" fill="#352E2D"/>
<circle cx="52.5" cy="133.5" r="2.5" fill="#352E2D"/>
<circle cx="67.5" cy="133.5" r="2.5" fill="#352E2D"/>
<circle cx="37.5" cy="133.5" r="2.5" fill="#352E2D"/>
<circle cx="22.5" cy="148.5" r="2.5" fill="#352E2D"/>
<circle cx="7.5" cy="148.5" r="2.5" fill="#352E2D"/>
<circle cx="52.5" cy="148.5" r="2.5" fill="#352E2D"/>
<circle cx="67.5" cy="148.5" r="2.5" fill="#352E2D"/>
<circle cx="37.5" cy="148.5" r="2.5" fill="#352E2D"/>
<circle cx="22.5" cy="163.5" r="2.5" fill="#352E2D"/>
<circle cx="7.5" cy="163.5" r="2.5" fill="#352E2D"/>
<circle cx="52.5" cy="163.5" r="2.5" fill="#352E2D"/>
<circle cx="67.5" cy="163.5" r="2.5" fill="#352E2D"/>
<circle cx="37.5" cy="163.5" r="2.5" fill="#352E2D"/>
<circle cx="22.5" cy="178.5" r="2.5" fill="#352E2D"/>
<circle cx="7.5" cy="178.5" r="2.5" fill="#352E2D"/>
<circle cx="52.5" cy="178.5" r="2.5" fill="#352E2D"/>
<circle cx="67.5" cy="178.5" r="2.5" fill="#352E2D"/>
<circle cx="37.5" cy="178.5" r="2.5" fill="#352E2D"/>
<circle cx="22.5" cy="193.5" r="2.5" fill="#352E2D"/>
<circle cx="7.5" cy="193.5" r="2.5" fill="#352E2D"/>
<circle cx="52.5" cy="193.5" r="2.5" fill="#352E2D"/>
<circle cx="67.5" cy="193.5" r="2.5" fill="#352E2D"/>
<circle cx="37.5" cy="193.5" r="2.5" fill="#352E2D"/>
<circle cx="22.5" cy="208.5" r="2.5" fill="#352E2D"/>
<circle cx="7.5" cy="208.5" r="2.5" fill="#352E2D"/>
<circle cx="52.5" cy="208.5" r="2.5" fill="#352E2D"/>
<circle cx="67.5" cy="208.5" r="2.5" fill="#352E2D"/>
<circle cx="37.5" cy="208.5" r="2.5" fill="#352E2D"/>
<circle cx="22.5" cy="223.5" r="2.5" fill="#352E2D"/>
<circle cx="7.5" cy="223.5" r="2.5" fill="#352E2D"/>
<circle cx="52.5" cy="223.5" r="2.5" fill="#352E2D"/>
<circle cx="67.5" cy="223.5" r="2.5" fill="#352E2D"/>
<circle cx="37.5" cy="223.5" r="2.5" fill="#352E2D"/>
<circle cx="22.5" cy="238.5" r="2.5" fill="#352E2D"/>
<circle cx="7.5" cy="238.5" r="2.5" fill="#352E2D"/>
<circle cx="52.5" cy="238.5" r="2.5" fill="#352E2D"/>
<circle cx="67.5" cy="238.5" r="2.5" fill="#352E2D"/>
<circle cx="37.5" cy="238.5" r="2.5" fill="#352E2D"/>
<circle cx="22.5" cy="253.5" r="2.5" fill="#352E2D"/>
<circle cx="7.5" cy="253.5" r="2.5" fill="#352E2D"/>
<circle cx="52.5" cy="253.5" r="2.5" fill="#352E2D"/>
<circle cx="67.5" cy="253.5" r="2.5" fill="#352E2D"/>
<circle cx="37.5" cy="253.5" r="2.5" fill="#352E2D"/>
<circle cx="22.5" cy="268.5" r="2.5" fill="#352E2D"/>
<circle cx="7.5" cy="268.5" r="2.5" fill="#352E2D"/>
<circle cx="52.5" cy="268.5" r="2.5" fill="#352E2D"/>
<circle cx="67.5" cy="268.5" r="2.5" fill="#352E2D"/>
<circle cx="37.5" cy="268.5" r="2.5" fill="#352E2D"/>
<circle cx="22.5" cy="283.5" r="2.5" fill="#352E2D"/>
<circle cx="7.5" cy="283.5" r="2.5" fill="#352E2D"/>
<circle cx="52.5" cy="283.5" r="2.5" fill="#352E2D"/>
<circle cx="67.5" cy="283.5" r="2.5" fill="#352E2D"/>
<circle cx="37.5" cy="283.5" r="2.5" fill="#352E2D"/>
<circle cx="22.5" cy="298.5" r="2.5" fill="#352E2D"/>
<circle cx="7.5" cy="298.5" r="2.5" fill="#352E2D"/>
<circle cx="52.5" cy="298.5" r="2.5" fill="#352E2D"/>
<circle cx="67.5" cy="298.5" r="2.5" fill="#352E2D"/>
<circle cx="37.5" cy="298.5" r="2.5" fill="#352E2D"/>
</svg>
