<svg width="224" height="85" viewBox="0 0 224 85" fill="none" xmlns="http://www.w3.org/2000/svg">
<rect width="209" height="85" transform="matrix(-1 0 0 1 224 0)" fill="white"/>
<circle cx="17.5" cy="11.5" r="2.5" fill="#352E2D"/>
<circle cx="2.5" cy="11.5" r="2.5" fill="#352E2D"/>
<circle cx="47.5" cy="11.5" r="2.5" fill="#352E2D"/>
<circle cx="62.5" cy="11.5" r="2.5" fill="#352E2D"/>
<circle cx="32.5" cy="11.5" r="2.5" fill="#352E2D"/>
<circle cx="17.5" cy="26.5" r="2.5" fill="#352E2D"/>
<circle cx="2.5" cy="26.5" r="2.5" fill="#352E2D"/>
<circle cx="47.5" cy="26.5" r="2.5" fill="#352E2D"/>
<circle cx="62.5" cy="26.5" r="2.5" fill="#352E2D"/>
<circle cx="32.5" cy="26.5" r="2.5" fill="#352E2D"/>
<circle cx="17.5" cy="41.5" r="2.5" fill="#352E2D"/>
<circle cx="2.5" cy="41.5" r="2.5" fill="#352E2D"/>
<circle cx="47.5" cy="41.5" r="2.5" fill="#352E2D"/>
<circle cx="62.5" cy="41.5" r="2.5" fill="#352E2D"/>
<circle cx="32.5" cy="41.5" r="2.5" fill="#352E2D"/>
<circle cx="17.5" cy="56.5" r="2.5" fill="#352E2D"/>
<circle cx="2.5" cy="56.5" r="2.5" fill="#352E2D"/>
<circle cx="47.5" cy="56.5" r="2.5" fill="#352E2D"/>
<circle cx="62.5" cy="56.5" r="2.5" fill="#352E2D"/>
<circle cx="32.5" cy="56.5" r="2.5" fill="#352E2D"/>
<circle cx="17.5" cy="71.5" r="2.5" fill="#352E2D"/>
<circle cx="2.5" cy="71.5" r="2.5" fill="#352E2D"/>
<circle cx="47.5" cy="71.5" r="2.5" fill="#352E2D"/>
<circle cx="62.5" cy="71.5" r="2.5" fill="#352E2D"/>
<circle cx="32.5" cy="71.5" r="2.5" fill="#352E2D"/>
<circle cx="92.5" cy="11.5" r="2.5" fill="#352E2D"/>
<circle cx="77.5" cy="11.5" r="2.5" fill="#352E2D"/>
<circle cx="122.5" cy="11.5" r="2.5" fill="#352E2D"/>
<circle cx="137.5" cy="11.5" r="2.5" fill="#352E2D"/>
<circle cx="107.5" cy="11.5" r="2.5" fill="#352E2D"/>
<circle cx="92.5" cy="26.5" r="2.5" fill="#352E2D"/>
<circle cx="77.5" cy="26.5" r="2.5" fill="#352E2D"/>
<circle cx="122.5" cy="26.5" r="2.5" fill="#352E2D"/>
<circle cx="137.5" cy="26.5" r="2.5" fill="#352E2D"/>
<circle cx="107.5" cy="26.5" r="2.5" fill="#352E2D"/>
<circle cx="92.5" cy="41.5" r="2.5" fill="#352E2D"/>
<circle cx="77.5" cy="41.5" r="2.5" fill="#352E2D"/>
<circle cx="122.5" cy="41.5" r="2.5" fill="#352E2D"/>
<circle cx="137.5" cy="41.5" r="2.5" fill="#352E2D"/>
<circle cx="107.5" cy="41.5" r="2.5" fill="#352E2D"/>
<circle cx="92.5" cy="56.5" r="2.5" fill="#352E2D"/>
<circle cx="77.5" cy="56.5" r="2.5" fill="#352E2D"/>
<circle cx="122.5" cy="56.5" r="2.5" fill="#352E2D"/>
<circle cx="137.5" cy="56.5" r="2.5" fill="#352E2D"/>
<circle cx="107.5" cy="56.5" r="2.5" fill="#352E2D"/>
<circle cx="92.5" cy="71.5" r="2.5" fill="#352E2D"/>
<circle cx="77.5" cy="71.5" r="2.5" fill="#352E2D"/>
<circle cx="122.5" cy="71.5" r="2.5" fill="#352E2D"/>
<circle cx="137.5" cy="71.5" r="2.5" fill="#352E2D"/>
<circle cx="107.5" cy="71.5" r="2.5" fill="#352E2D"/>
<circle cx="167.5" cy="11.5" r="2.5" fill="#352E2D"/>
<circle cx="152.5" cy="11.5" r="2.5" fill="#352E2D"/>
<circle cx="197.5" cy="11.5" r="2.5" fill="#352E2D"/>
<circle cx="212.5" cy="11.5" r="2.5" fill="#352E2D"/>
<circle cx="182.5" cy="11.5" r="2.5" fill="#352E2D"/>
<circle cx="167.5" cy="26.5" r="2.5" fill="#352E2D"/>
<circle cx="152.5" cy="26.5" r="2.5" fill="#352E2D"/>
<circle cx="197.5" cy="26.5" r="2.5" fill="#352E2D"/>
<circle cx="212.5" cy="26.5" r="2.5" fill="#352E2D"/>
<circle cx="182.5" cy="26.5" r="2.5" fill="#352E2D"/>
<circle cx="167.5" cy="41.5" r="2.5" fill="#352E2D"/>
<circle cx="152.5" cy="41.5" r="2.5" fill="#352E2D"/>
<circle cx="197.5" cy="41.5" r="2.5" fill="#352E2D"/>
<circle cx="212.5" cy="41.5" r="2.5" fill="#352E2D"/>
<circle cx="182.5" cy="41.5" r="2.5" fill="#352E2D"/>
<circle cx="167.5" cy="56.5" r="2.5" fill="#352E2D"/>
<circle cx="152.5" cy="56.5" r="2.5" fill="#352E2D"/>
<circle cx="197.5" cy="56.5" r="2.5" fill="#352E2D"/>
<circle cx="212.5" cy="56.5" r="2.5" fill="#352E2D"/>
<circle cx="182.5" cy="56.5" r="2.5" fill="#352E2D"/>
<circle cx="167.5" cy="71.5" r="2.5" fill="#352E2D"/>
<circle cx="152.5" cy="71.5" r="2.5" fill="#352E2D"/>
<circle cx="197.5" cy="71.5" r="2.5" fill="#352E2D"/>
<circle cx="212.5" cy="71.5" r="2.5" fill="#352E2D"/>
<circle cx="182.5" cy="71.5" r="2.5" fill="#352E2D"/>
</svg>
