<svg width="65" height="65" viewBox="0 0 65 65" fill="none" xmlns="http://www.w3.org/2000/svg">
<circle cx="17.5" cy="2.5" r="2.5" fill="#352E2D"/>
<circle cx="2.5" cy="2.5" r="2.5" fill="#352E2D"/>
<circle cx="47.5" cy="2.5" r="2.5" fill="#352E2D"/>
<circle cx="62.5" cy="2.5" r="2.5" fill="#352E2D"/>
<circle cx="32.5" cy="2.5" r="2.5" fill="#352E2D"/>
<circle cx="17.5" cy="17.5" r="2.5" fill="#352E2D"/>
<circle cx="2.5" cy="17.5" r="2.5" fill="#352E2D"/>
<circle cx="47.5" cy="17.5" r="2.5" fill="#352E2D"/>
<circle cx="62.5" cy="17.5" r="2.5" fill="#352E2D"/>
<circle cx="32.5" cy="17.5" r="2.5" fill="#352E2D"/>
<circle cx="17.5" cy="32.5" r="2.5" fill="#352E2D"/>
<circle cx="2.5" cy="32.5" r="2.5" fill="#352E2D"/>
<circle cx="47.5" cy="32.5" r="2.5" fill="#352E2D"/>
<circle cx="62.5" cy="32.5" r="2.5" fill="#352E2D"/>
<circle cx="32.5" cy="32.5" r="2.5" fill="#352E2D"/>
<circle cx="17.5" cy="47.5" r="2.5" fill="#352E2D"/>
<circle cx="2.5" cy="47.5" r="2.5" fill="#352E2D"/>
<circle cx="47.5" cy="47.5" r="2.5" fill="#352E2D"/>
<circle cx="62.5" cy="47.5" r="2.5" fill="#352E2D"/>
<circle cx="32.5" cy="47.5" r="2.5" fill="#352E2D"/>
<circle cx="17.5" cy="62.5" r="2.5" fill="#352E2D"/>
<circle cx="2.5" cy="62.5" r="2.5" fill="#352E2D"/>
<circle cx="47.5" cy="62.5" r="2.5" fill="#352E2D"/>
<circle cx="62.5" cy="62.5" r="2.5" fill="#352E2D"/>
<circle cx="32.5" cy="62.5" r="2.5" fill="#352E2D"/>
</svg>
