<svg width="137" height="295" viewBox="0 0 137 295" fill="none" xmlns="http://www.w3.org/2000/svg">
<circle cx="36.8845" cy="5.26923" r="5.26923" fill="#352E2D"/>
<circle cx="5.26923" cy="5.26923" r="5.26923" fill="#352E2D"/>
<circle cx="100.115" cy="5.26923" r="5.26923" fill="#352E2D"/>
<circle cx="131.731" cy="5.26923" r="5.26923" fill="#352E2D"/>
<circle cx="68.4997" cy="5.26923" r="5.26923" fill="#352E2D"/>
<circle cx="36.8845" cy="36.8845" r="5.26923" fill="#352E2D"/>
<circle cx="5.26923" cy="36.8845" r="5.26923" fill="#352E2D"/>
<circle cx="100.115" cy="36.8845" r="5.26923" fill="#352E2D"/>
<circle cx="131.731" cy="36.8845" r="5.26923" fill="#352E2D"/>
<circle cx="68.4997" cy="36.8845" r="5.26923" fill="#352E2D"/>
<circle cx="36.8845" cy="68.4997" r="5.26923" fill="#352E2D"/>
<circle cx="5.26923" cy="68.4997" r="5.26923" fill="#352E2D"/>
<circle cx="100.115" cy="68.4997" r="5.26923" fill="#352E2D"/>
<circle cx="131.731" cy="68.4997" r="5.26923" fill="#352E2D"/>
<circle cx="68.4997" cy="68.4997" r="5.26923" fill="#352E2D"/>
<circle cx="36.8845" cy="100.115" r="5.26923" fill="#352E2D"/>
<circle cx="5.26923" cy="100.115" r="5.26923" fill="#352E2D"/>
<circle cx="100.115" cy="100.115" r="5.26923" fill="#352E2D"/>
<circle cx="131.731" cy="100.115" r="5.26923" fill="#352E2D"/>
<circle cx="68.4997" cy="100.115" r="5.26923" fill="#352E2D"/>
<circle cx="36.8845" cy="131.731" r="5.26923" fill="#352E2D"/>
<circle cx="5.26923" cy="131.731" r="5.26923" fill="#352E2D"/>
<circle cx="100.115" cy="131.731" r="5.26923" fill="#352E2D"/>
<circle cx="131.731" cy="131.731" r="5.26923" fill="#352E2D"/>
<circle cx="68.4997" cy="131.731" r="5.26923" fill="#352E2D"/>
<circle cx="36.8845" cy="163.269" r="5.26923" fill="#352E2D"/>
<circle cx="5.26923" cy="163.269" r="5.26923" fill="#352E2D"/>
<circle cx="100.115" cy="163.269" r="5.26923" fill="#352E2D"/>
<circle cx="131.731" cy="163.269" r="5.26923" fill="#352E2D"/>
<circle cx="68.4997" cy="163.269" r="5.26923" fill="#352E2D"/>
<circle cx="36.8845" cy="194.884" r="5.26923" fill="#352E2D"/>
<circle cx="5.26923" cy="194.884" r="5.26923" fill="#352E2D"/>
<circle cx="100.115" cy="194.884" r="5.26923" fill="#352E2D"/>
<circle cx="131.731" cy="194.884" r="5.26923" fill="#352E2D"/>
<circle cx="68.4997" cy="194.884" r="5.26923" fill="#352E2D"/>
<circle cx="36.8845" cy="226.5" r="5.26923" fill="#352E2D"/>
<circle cx="5.26923" cy="226.5" r="5.26923" fill="#352E2D"/>
<circle cx="100.115" cy="226.5" r="5.26923" fill="#352E2D"/>
<circle cx="131.731" cy="226.5" r="5.26923" fill="#352E2D"/>
<circle cx="68.4997" cy="226.5" r="5.26923" fill="#352E2D"/>
<circle cx="36.8845" cy="258.115" r="5.26923" fill="#352E2D"/>
<circle cx="5.26923" cy="258.115" r="5.26923" fill="#352E2D"/>
<circle cx="100.115" cy="258.115" r="5.26923" fill="#352E2D"/>
<circle cx="131.731" cy="258.115" r="5.26923" fill="#352E2D"/>
<circle cx="68.4997" cy="258.115" r="5.26923" fill="#352E2D"/>
<circle cx="36.8845" cy="289.731" r="5.26923" fill="#352E2D"/>
<circle cx="5.26923" cy="289.731" r="5.26923" fill="#352E2D"/>
<circle cx="100.115" cy="289.731" r="5.26923" fill="#352E2D"/>
<circle cx="131.731" cy="289.731" r="5.26923" fill="#352E2D"/>
<circle cx="68.4997" cy="289.731" r="5.26923" fill="#352E2D"/>
</svg>
