<svg width="38" height="39" viewBox="0 0 38 39" fill="none" xmlns="http://www.w3.org/2000/svg">
<path d="M10.5556 0C4.72678 0 0 4.85117 0 10.8333V28.1667C0 34.1488 4.72678 39 10.5556 39H27.4444C33.2732 39 38 34.1488 38 28.1667V10.8333C38 4.85117 33.2732 0 27.4444 0H10.5556ZM31.6667 4.33333C32.832 4.33333 33.7778 5.304 33.7778 6.5C33.7778 7.696 32.832 8.66667 31.6667 8.66667C30.5013 8.66667 29.5556 7.696 29.5556 6.5C29.5556 5.304 30.5013 4.33333 31.6667 4.33333ZM19 8.66667C24.8288 8.66667 29.5556 13.5178 29.5556 19.5C29.5556 25.4822 24.8288 30.3333 19 30.3333C13.1712 30.3333 8.44444 25.4822 8.44444 19.5C8.44444 13.5178 13.1712 8.66667 19 8.66667ZM19 13C17.3203 13 15.7094 13.6848 14.5217 14.9038C13.3339 16.1228 12.6667 17.7761 12.6667 19.5C12.6667 21.2239 13.3339 22.8772 14.5217 24.0962C15.7094 25.3152 17.3203 26 19 26C20.6797 26 22.2906 25.3152 23.4783 24.0962C24.6661 22.8772 25.3333 21.2239 25.3333 19.5C25.3333 17.7761 24.6661 16.1228 23.4783 14.9038C22.2906 13.6848 20.6797 13 19 13Z" fill="#2B1E23"/>
</svg>
