<svg width="38" height="39" viewBox="0 0 38 39" fill="none" xmlns="http://www.w3.org/2000/svg">
<path d="M33.7778 0H4.22222C1.88944 0 0 1.93917 0 4.33333V34.6667C0 37.0608 1.88944 39 4.22222 39H33.7778C36.1106 39 38 37.0608 38 34.6667V4.33333C38 1.93917 36.1106 0 33.7778 0ZM31.4703 27.482L27.8076 27.534C27.8076 27.534 27.018 27.6922 25.9836 26.9598C24.6134 25.9935 23.3214 23.4802 22.3144 23.8073C21.2927 24.141 21.3243 26.403 21.3243 26.403C21.3243 26.403 21.3328 26.8017 21.0984 27.0617C20.8451 27.3412 20.349 27.313 20.349 27.313H18.7087C18.7087 27.313 15.0902 27.6207 11.9003 24.2082C8.42544 20.488 5.35589 13.1452 5.35589 13.1452C5.35589 13.1452 5.17645 12.6815 5.36856 12.4453C5.586 12.1832 6.17289 12.1767 6.17289 12.1767L10.0932 12.1572C10.0932 12.1572 10.4627 12.2243 10.7287 12.4237C10.9461 12.5883 11.0707 12.8982 11.0707 12.8982C11.0707 12.8982 11.704 14.547 12.5442 16.0398C14.1824 18.9497 14.9446 19.5867 15.4998 19.2747C16.3104 18.8197 16.0677 15.1623 16.0677 15.1623C16.0677 15.1623 16.0824 13.8342 15.6602 13.2427C15.3309 12.7812 14.7123 12.6447 14.44 12.61C14.2183 12.5797 14.5793 12.0532 15.0501 11.8148C15.7552 11.4617 17.0029 11.44 18.4743 11.4552C19.6207 11.4682 19.9521 11.5397 20.3997 11.6523C21.7529 11.9882 21.2927 13.2838 21.2927 16.393C21.2927 17.3897 21.1174 18.7893 21.8162 19.2508C22.1181 19.4502 22.8528 19.2812 24.6873 16.0745C25.5592 14.5535 26.2116 12.766 26.2116 12.766C26.2116 12.766 26.3551 12.4475 26.5768 12.311C26.8048 12.1702 27.1109 12.2135 27.1109 12.2135L31.2381 12.1875C31.2381 12.1875 32.4773 12.0337 32.68 12.6122C32.8911 13.2167 32.2177 14.6272 30.5309 16.9347C27.7632 20.7263 27.455 20.3732 29.754 22.5658C31.9496 24.661 32.4034 25.6793 32.4794 25.8072C33.3872 27.3585 31.4703 27.482 31.4703 27.482Z" fill="#2B1E23"/>
</svg>
