<svg width="38" height="43" viewBox="0 0 38 43" fill="none" xmlns="http://www.w3.org/2000/svg">
<path d="M5.65712 0L8.77843 11.4891V16.9984H11.4833V11.4891L14.6458 0H11.9204L10.7865 5.22803C10.4677 6.75453 10.265 7.83947 10.1721 8.48662H10.0896C9.95663 7.58147 9.75393 6.48843 9.47526 5.20703L8.3826 0H5.65712ZM17.8001 4.33779C16.8839 4.33779 16.1455 4.52014 15.5818 4.89209C15.0181 5.26189 14.6026 5.85361 14.3366 6.66416C14.0727 7.47471 13.9408 8.54766 13.9408 9.88496V11.6906C13.9408 13.0129 14.0549 14.0718 14.2871 14.8694C14.5193 15.6671 14.9112 16.2547 15.4622 16.6331C16.0132 17.0115 16.7714 17.2 17.7383 17.2C18.6798 17.2 19.4283 17.0135 19.9772 16.6415C20.5261 16.2696 20.9239 15.6861 21.1688 14.882C21.4137 14.0779 21.5358 13.015 21.5358 11.6906V9.88496C21.5358 8.54981 21.4118 7.48086 21.1606 6.67676C20.9094 5.87481 20.5095 5.28309 19.9648 4.90469C19.4202 4.52629 18.7016 4.33779 17.8001 4.33779ZM22.9666 4.58135V13.8574C22.9666 15.0055 23.1555 15.8499 23.5397 16.3896C23.9239 16.9292 24.5207 17.2 25.3292 17.2C26.4945 17.2 27.3731 16.6264 27.9557 15.4783H28.0135L28.2526 16.9984H30.4008V4.58135H27.6589V14.4453C27.5533 14.6754 27.3919 14.8639 27.1723 15.0122C26.9528 15.1627 26.7264 15.2348 26.4878 15.2348C26.2092 15.2348 26.0103 15.1185 25.89 14.882C25.7696 14.6455 25.7086 14.2484 25.7086 13.6937V4.58135H22.9666ZM17.7383 6.26104C18.1225 6.26104 18.3944 6.46552 18.5464 6.87832C18.6984 7.28897 18.7732 7.94291 18.7732 8.83516V12.7026C18.7732 13.6207 18.6984 14.2847 18.5464 14.6889C18.3944 15.0931 18.1245 15.2956 17.7424 15.2978C17.3582 15.2978 17.0923 15.0931 16.9466 14.6889C16.7988 14.2847 16.7281 13.6207 16.7281 12.7026V8.83516C16.7281 7.94506 16.8029 7.29112 16.9549 6.87832C17.1069 6.46767 17.3667 6.26104 17.7383 6.26104ZM4.22222 19.35C1.9 19.35 0 21.285 0 23.65V38.7C0 41.065 1.9 43 4.22222 43H33.7778C36.1 43 38 41.065 38 38.7V23.65C38 21.285 36.1 19.35 33.7778 19.35H4.22222ZM19.1031 23.65H21.3338V29.172H21.3503C21.5508 28.7721 21.8385 28.4513 22.2079 28.2062C22.5773 27.9611 22.9772 27.8408 23.4036 27.8408C23.9525 27.8408 24.3818 27.9892 24.6942 28.2859C25.0067 28.5826 25.2352 29.062 25.3746 29.7221C25.5139 30.3843 25.5807 31.3029 25.5807 32.4768V34.1355H25.5849C25.5849 35.6985 25.3977 36.8435 25.0282 37.5788C24.6588 38.3141 24.0838 38.6832 23.3006 38.6832C22.8636 38.6832 22.4678 38.5809 22.1089 38.3767C21.7501 38.1724 21.4802 37.8916 21.3008 37.5368H21.2513L21.0163 38.5278H19.1031V23.65ZM5.24892 24.1791H12.1142V26.0813H9.81337V38.5278H7.5497V26.0813H5.24892V24.1791ZM29.7617 27.845C30.5555 27.845 31.166 27.9934 31.5924 28.2901C32.0168 28.5868 32.3161 29.0502 32.4913 29.6759C32.6644 30.3037 32.7511 31.1701 32.7511 32.2752V34.0725H28.8752V34.6058C28.8752 35.2787 28.8928 35.7821 28.9329 36.1175C28.9731 36.4529 29.0538 36.6997 29.1762 36.8523C29.2987 37.0071 29.4877 37.0833 29.7452 37.0833C30.0914 37.0833 30.3298 36.9448 30.4586 36.6718C30.5873 36.3987 30.6583 35.9456 30.6688 35.307L32.6686 35.4246C32.6792 35.5149 32.6851 35.6434 32.6851 35.8025C32.6851 36.7722 32.4231 37.4962 31.9017 37.9735C31.3802 38.453 30.6479 38.6916 29.6957 38.6916C28.5536 38.6916 27.7521 38.3245 27.2919 37.5956C26.8317 36.8668 26.6033 35.7397 26.6033 34.211V32.3802C26.6033 30.8064 26.8416 29.6572 27.3166 28.9326C27.7916 28.2081 28.6091 27.845 29.7617 27.845ZM11.4214 28.0466H13.7428V35.7438C13.7428 36.2103 13.7941 36.5454 13.8954 36.7432C13.9967 36.9431 14.162 37.0413 14.3984 37.0413C14.599 37.0413 14.7962 36.9792 14.9798 36.8523C15.1656 36.7276 15.2972 36.5671 15.388 36.3736V28.0466H17.7094V38.5278H17.7053H15.8911L15.6931 37.2429H15.6395C15.1455 38.2147 14.4071 38.7 13.4212 38.7C12.7372 38.7 12.2372 38.4713 11.9121 38.0155C11.587 37.5597 11.4214 36.8456 11.4214 35.8781V28.0466ZM29.7122 29.4407C29.4652 29.4407 29.2821 29.5171 29.1638 29.6633C29.0456 29.8116 28.9668 30.0543 28.9288 30.3897C28.8887 30.7251 28.8711 31.2346 28.8711 31.9183V32.6699H30.5658V31.9183C30.5658 31.2453 30.5441 30.738 30.4998 30.3897C30.4576 30.0414 30.3747 29.7968 30.2565 29.6549C30.1383 29.513 29.9592 29.4407 29.7122 29.4407ZM22.3605 29.5163C22.1367 29.5163 21.932 29.6065 21.742 29.7893C21.552 29.972 21.416 30.2067 21.3379 30.4905V36.4408C21.4392 36.6236 21.5712 36.7599 21.7337 36.8523C21.8963 36.9426 22.0694 36.9909 22.2615 36.9909C22.5085 36.9909 22.7013 36.9007 22.847 36.718C22.9927 36.5352 23.0992 36.2284 23.1604 35.7941C23.2216 35.362 23.2511 34.7601 23.2511 33.9969V32.6489C23.2511 31.8276 23.2275 31.1959 23.1769 30.7509C23.1262 30.3058 23.0355 29.9847 22.9089 29.7977C22.7801 29.6106 22.5969 29.5163 22.3605 29.5163Z" fill="#2B1E23"/>
</svg>
