<svg width="53" height="35" viewBox="0 0 53 35" fill="none" xmlns="http://www.w3.org/2000/svg">
<path fill-rule="evenodd" clip-rule="evenodd" d="M32.9921 18C32.7281 26.329 25.8931 33 17.5 33C8.93959 33 2 26.0604 2 17.5C2 8.93959 8.93959 2 17.5 2C25.5544 2 32.1739 8.1434 32.9284 16H18V18H32.9921ZM34.993 18C34.7283 27.4338 26.9978 35 17.5 35C7.83502 35 0 27.165 0 17.5C0 7.83502 7.83502 0 17.5 0C26.6597 0 34.1758 7.0372 34.9366 16H49.5858L44.9289 11.3431C44.5384 10.9526 44.5384 10.3195 44.9289 9.92893C45.3195 9.53841 45.9526 9.53841 46.3431 9.92893L52.7071 16.2929C53.0976 16.6834 53.0976 17.3166 52.7071 17.7071L46.3431 24.0711C45.9526 24.4616 45.3195 24.4616 44.9289 24.0711C44.5384 23.6805 44.5384 23.0474 44.9289 22.6569L49.5858 18H34.993Z" fill="#352E2D"/>
</svg>
