<svg width="75" height="76" viewBox="0 0 75 76" fill="none" xmlns="http://www.w3.org/2000/svg">
<path fill-rule="evenodd" clip-rule="evenodd" d="M36.0655 1.72727C36.0655 0.773326 36.8309 0 37.7751 0C38.7192 0 39.4846 0.773326 39.4846 1.72727V12.0909C39.4846 13.0449 38.7192 13.8182 37.7751 13.8182C36.8309 13.8182 36.0655 13.0449 36.0655 12.0909V1.72727ZM74.3429 12.2585C75.0869 11.6712 75.2188 10.5857 74.6375 9.83401C74.0562 9.08229 72.9819 8.94901 72.2379 9.53631L64.155 15.9168C63.4109 16.5041 63.279 17.5896 63.8603 18.3413C64.4416 19.0931 65.516 19.2263 66.26 18.639L74.3429 12.2585ZM0.362484 9.9894C-0.218801 10.7411 -0.0868846 11.8266 0.657126 12.4139L8.88965 18.9125C9.63366 19.4998 10.708 19.3666 11.2893 18.6148L11.3185 18.577C11.8998 17.8253 11.7679 16.7398 11.0239 16.1525L2.79137 9.65392C2.04736 9.06661 0.972991 9.19989 0.391706 9.95161L0.362484 9.9894ZM3.58387 38L16.4058 24.1818L23.2438 38H3.58387ZM18.1151 22.4545L26.321 38L37.775 23.5341L49.2291 38L57.435 22.4545H38.6298H36.9203H18.1151ZM24.702 41.4545H3.58387L33.5012 72.5455L24.702 41.4545ZM59.1445 24.1818L71.9662 38H52.3063L59.1445 24.1818ZM29.2273 38L37.7751 27.6364L46.3228 38H37.7751H29.2273ZM27.9451 41.4545H37.7751H48.0324L37.7751 76L27.9451 41.4545ZM71.9662 41.4545H50.8481L42.0489 72.5455L71.9662 41.4545Z" fill="#F40000"/>
</svg>
