<svg width="54" height="55" viewBox="0 0 54 55" fill="none" xmlns="http://www.w3.org/2000/svg">
<path fill-rule="evenodd" clip-rule="evenodd" d="M25.9672 1.25C25.9672 0.559644 26.5182 0 27.198 0C27.8778 0 28.4289 0.559644 28.4289 1.25V8.75C28.4289 9.44036 27.8778 10 27.198 10C26.5182 10 25.9672 9.44036 25.9672 8.75V1.25ZM53.5269 8.87131C54.0626 8.44628 54.1575 7.66073 53.739 7.11672C53.3205 6.57271 52.5469 6.47625 52.0113 6.90128L46.1916 11.5187C45.6559 11.9438 45.5609 12.7293 45.9794 13.2733C46.3979 13.8173 47.1715 13.9138 47.7072 13.4888L53.5269 8.87131ZM0.260988 7.22917C-0.157537 7.77318 -0.0625569 8.55874 0.473131 8.98377L6.40055 13.6867C6.93623 14.1117 7.70978 14.0153 8.1283 13.4713L8.14934 13.4439C8.56787 12.8999 8.47289 12.1143 7.9372 11.6893L2.00978 6.98639C1.4741 6.56136 0.700553 6.65782 0.282028 7.20183L0.260988 7.22917ZM2.58039 27.5L11.8122 17.5L16.7355 27.5H2.58039ZM13.0429 16.25L18.9511 27.5L27.198 17.0313L35.4449 27.5L41.3532 16.25H27.8135H26.5826H13.0429ZM17.7854 30H2.58039L24.1208 52.5L17.7854 30ZM42.5841 17.5L51.8157 27.5H37.6605L42.5841 17.5ZM21.0436 27.5L27.198 20L33.3524 27.5H27.198H21.0436ZM20.1205 30H27.198H34.5833L27.198 55L20.1205 30ZM51.8157 30H36.6107L30.2752 52.5L51.8157 30Z" fill="#C90000"/>
</svg>
