<svg width="45" height="59" viewBox="0 0 45 59" fill="none" xmlns="http://www.w3.org/2000/svg">
<path d="M22.5 33.989C29.2666 33.989 34.7295 28.7255 34.7295 22.2058C34.7295 15.6861 29.2666 10.4225 22.5 10.4225C15.7334 10.4225 10.2705 15.6861 10.2705 22.2058C10.2705 28.7255 15.7334 33.989 22.5 33.989ZM14.4298 18.916L19.5823 18.5571L21.5067 13.9515C21.8792 13.1141 23.1208 13.1141 23.4933 13.9515L25.4177 18.5571L30.5702 18.916C31.5635 18.9758 31.9359 20.1721 31.191 20.7703L27.28 24.0002L28.5216 28.8451C28.7699 29.7423 27.7146 30.46 26.9076 29.9815L22.5 27.2899L18.0924 29.9217C17.2854 30.4002 16.2301 29.6825 16.4784 28.7853L17.72 23.9404L13.809 20.7703C13.0641 20.1721 13.4365 19.0357 14.4298 18.916ZM10.3326 37.8171L11.8846 41.5854C12.1329 42.1237 12.7537 42.4228 13.3745 42.2433L17.4096 41.047C17.8441 40.9274 18.2787 41.047 18.5891 41.2863L21.693 44.0377C22.1275 44.4564 22.8725 44.4564 23.307 44.0377L26.4109 41.2863C26.7213 40.9872 27.1559 40.9274 27.5904 41.047L31.6255 42.2433C32.2463 42.4228 32.8671 42.1237 33.1154 41.5854L34.6674 37.8171C34.8536 37.4582 35.164 37.1592 35.5986 37.0993L39.7578 36.4414C40.3786 36.3218 40.8132 35.8433 40.7511 35.2451L40.5028 31.1778C40.5028 30.7591 40.689 30.4002 40.9994 30.161L44.4758 27.8282C44.9724 27.4694 45.1586 26.8114 44.8483 26.2731L42.7376 22.7441C42.5513 22.3852 42.5513 21.9665 42.7376 21.6076L44.8483 18.0786C45.1586 17.5403 44.9724 16.8824 44.4758 16.5235L40.9994 14.1908C40.6269 13.9515 40.4407 13.5926 40.5028 13.1739L40.8131 9.10661C40.8752 8.50848 40.4407 7.97015 39.8199 7.91034L35.6606 7.25239C35.2261 7.19258 34.9157 6.89351 34.7295 6.53463L33.1775 2.76638C32.9292 2.22805 32.3084 1.92899 31.6876 2.10843L27.6525 3.3047C27.218 3.42433 26.7834 3.3047 26.473 3.06544L23.3691 0.314021C22.9345 -0.104674 22.1896 -0.104674 21.7551 0.314021L18.6511 3.06544C18.3407 3.36451 17.9062 3.42433 17.4716 3.3047L13.4365 2.10843C12.8158 1.92899 12.195 2.22805 11.9467 2.76638L10.3947 6.53463C10.2085 6.89351 9.89807 7.19258 9.46352 7.25239L5.30426 7.91034C4.68348 8.02997 4.24893 8.50848 4.31101 9.10661L4.6214 13.1739C4.6214 13.5926 4.43516 13.9515 4.12477 14.1908L0.648375 16.5235C0.151747 16.8824 -0.0344882 17.5403 0.275904 18.0786L2.38657 21.6076C2.57281 21.9665 2.57281 22.3852 2.38657 22.7441L0.151747 26.3329C-0.158645 26.8712 0.0275906 27.5292 0.524218 27.8881L4.00061 30.2208C4.37308 30.46 4.55932 30.8189 4.49724 31.2376L4.24893 35.2451C4.18685 35.8433 4.6214 36.3816 5.24218 36.4414L9.40144 37.0993C9.83599 37.1592 10.1464 37.4582 10.3326 37.8171ZM22.5 7.79071C30.7564 7.79071 37.4609 14.2506 37.4609 22.2058C37.4609 30.161 30.7564 36.6208 22.5 36.6208C14.2436 36.6208 7.53909 30.161 7.53909 22.2058C7.53909 14.2506 14.2436 7.79071 22.5 7.79071ZM32.7429 54.7443L29.8253 58.3332C29.5769 58.692 28.9562 58.5724 28.832 58.1537L24.859 46.2508C24.9211 46.191 25.0452 46.1312 25.1073 46.0714L27.5904 43.9181L30.8185 44.8751C31.191 44.9947 31.5635 45.0546 31.9359 45.0546C32.9913 45.0546 34.0466 44.6359 34.7295 43.9181L38.5162 55.2229C38.6404 55.6415 38.2679 56.0602 37.8334 55.8808L33.3017 54.6247C33.1154 54.5051 32.9292 54.5649 32.7429 54.7443ZM11.6363 54.5649L7.10454 55.821C6.66999 55.9406 6.29752 55.5219 6.42167 55.163L10.2085 43.8583C10.9534 44.576 11.9467 44.9947 13.002 44.9947C13.3745 44.9947 13.7469 44.9349 14.1194 44.8153L17.3475 43.8583L19.8306 46.0116C19.8927 46.0714 20.0169 46.1312 20.0789 46.191L16.1059 58.0939C15.9818 58.5126 15.4231 58.6322 15.1127 58.2733L12.195 54.6845C12.0708 54.5649 11.8846 54.5051 11.6363 54.5649Z" fill="#C90000"/>
</svg>
