<svg width="62" height="84" viewBox="0 0 62 84" fill="none" xmlns="http://www.w3.org/2000/svg">
<path d="M31 48.7667C40.3228 48.7667 47.8495 41.2146 47.8495 31.8604C47.8495 22.5061 40.3228 14.954 31 14.954C21.6772 14.954 14.1505 22.5061 14.1505 31.8604C14.1505 41.2146 21.6772 48.7667 31 48.7667ZM19.8811 27.1403L26.9801 26.6254L29.6315 20.0173C30.1447 18.8158 31.8553 18.8158 32.3685 20.0173L35.0199 26.6254L42.1189 27.1403C43.4874 27.2261 44.0006 28.9425 42.9742 29.8007L37.5858 34.4349L39.2964 41.3863C39.6386 42.6736 38.1845 43.7034 37.0727 43.0168L31 39.155L24.9273 42.931C23.8155 43.6176 22.3614 42.5877 22.7036 41.3005L24.4142 34.3491L19.0257 29.8007C17.9994 28.9425 18.5126 27.3119 19.8811 27.1403ZM14.2361 54.2591L16.3743 59.6658C16.7164 60.4381 17.5717 60.8672 18.427 60.6098L23.9865 58.8934C24.5852 58.7217 25.1839 58.8934 25.6116 59.2367L29.8881 63.1843C30.4868 63.7851 31.5132 63.7851 32.1119 63.1843L36.3884 59.2367C36.8161 58.8076 37.4148 58.7217 38.0135 58.8934L43.573 60.6098C44.4283 60.8672 45.2836 60.4381 45.6257 59.6658L47.7639 54.2591C48.0205 53.7442 48.4482 53.3151 49.0469 53.2293L54.7774 52.2853C55.6327 52.1137 56.2315 51.4271 56.1459 50.5689L55.8038 44.7332C55.8038 44.1325 56.0604 43.6176 56.488 43.2743L61.2777 39.9273C61.962 39.4124 62.2186 38.4684 61.7909 37.6961L58.8829 32.6327C58.6263 32.1178 58.6263 31.5171 58.8829 31.0022L61.7909 25.9388C62.2186 25.1665 61.962 24.2225 61.2777 23.7075L56.488 20.3606C55.9749 20.0173 55.7183 19.5024 55.8038 18.9017L56.2315 13.066C56.317 12.2078 55.7183 11.4354 54.863 11.3496L49.1324 10.4056C48.5337 10.3198 48.1061 9.89066 47.8495 9.37574L45.7112 3.96913C45.3691 3.19676 44.5138 2.76767 43.6585 3.02512L38.099 4.74151C37.5003 4.91315 36.9016 4.74151 36.4739 4.39823L32.1974 0.45055C31.5987 -0.150183 30.5723 -0.150183 29.9736 0.45055L25.6971 4.39823C25.2695 4.82733 24.6708 4.91315 24.072 4.74151L18.5126 3.02512C17.6573 2.76767 16.802 3.19676 16.4598 3.96913L14.3216 9.37574C14.065 9.89066 13.6373 10.3198 13.0386 10.4056L7.30809 11.3496C6.45279 11.5212 5.85408 12.2078 5.93961 13.066L6.36726 18.9017C6.36726 19.5024 6.11067 20.0173 5.68302 20.3606L0.893317 23.7075C0.209074 24.2225 -0.0475171 25.1665 0.380135 25.9388L3.28817 31.0022C3.54476 31.5171 3.54476 32.1178 3.28817 32.6327L0.209074 37.7819C-0.218578 38.5542 0.0380137 39.4983 0.722257 40.0132L5.51196 43.3601C6.02514 43.7034 6.28173 44.2183 6.1962 44.819L5.85408 50.5689C5.76855 51.4271 6.36726 52.1995 7.22256 52.2853L12.9531 53.2293C13.5518 53.3151 13.9795 53.7442 14.2361 54.2591ZM31 11.1779C42.3755 11.1779 51.6128 20.4464 51.6128 31.8604C51.6128 43.2743 42.3755 52.5428 31 52.5428C19.6245 52.5428 10.3872 43.2743 10.3872 31.8604C10.3872 20.4464 19.6245 11.1779 31 11.1779ZM45.1125 78.546L41.0926 83.6951C40.7505 84.21 39.8952 84.0384 39.7241 83.4377L34.2502 66.3596C34.3357 66.2738 34.5067 66.188 34.5923 66.1022L38.0135 63.0127L42.4611 64.3858C42.9743 64.5574 43.4874 64.6433 44.0006 64.6433C45.4546 64.6433 46.9086 64.0425 47.8495 63.0127L53.0668 79.2325C53.2379 79.8333 52.7247 80.434 52.126 80.1765L45.8823 78.3743C45.6257 78.2027 45.3691 78.2885 45.1125 78.546ZM16.0322 78.2885L9.78847 80.0907C9.18976 80.2623 8.67658 79.6616 8.84764 79.1467L14.065 62.9269C15.0914 63.9567 16.4598 64.5574 17.9139 64.5574C18.427 64.5574 18.9402 64.4716 19.4534 64.3L23.901 62.9269L27.3222 66.0164C27.4077 66.1022 27.5788 66.188 27.6643 66.2738L22.1904 83.3518C22.0193 83.9526 21.2495 84.1242 20.8219 83.6093L16.802 78.4601C16.6309 78.2885 16.3743 78.2027 16.0322 78.2885Z" fill="#F40000"/>
</svg>
