<svg width="79" height="79" viewBox="0 0 79 79" fill="none" xmlns="http://www.w3.org/2000/svg">
<path fill-rule="evenodd" clip-rule="evenodd" d="M35.6036 1.26523C35.8067 0.518227 36.4831 0 37.255 0H41.4283C42.2276 0 42.9204 0.554747 43.0976 1.33648L44.3315 6.78223C45.2309 7.07088 46.0964 7.43592 46.9201 7.86974L51.8444 5.04731C52.5146 4.66316 53.3582 4.77648 53.9041 5.32398L56.8551 8.28394C57.4202 8.8508 57.5191 9.73449 57.0932 10.4129L54.0416 15.2744C54.3096 15.8348 54.5467 16.4129 54.7505 17.0066L60.363 18.542C61.1078 18.7457 61.6244 19.4242 61.6244 20.1985V24.3845C61.6244 25.1861 61.0714 25.8811 60.292 26.0588L54.8628 27.2964C54.6576 27.9396 54.4138 28.5654 54.134 29.1711L56.8699 33.9736C57.2529 34.6459 57.1399 35.4921 56.5941 36.0396L53.6431 38.9995C53.078 39.5664 52.197 39.6656 51.5206 39.2384L47.294 36.5691C46.5017 37.0133 45.6686 37.3929 44.8018 37.7008L43.4162 42.7965C43.2131 43.5435 42.5367 44.0618 41.7648 44.0618H37.5915C36.7922 44.0618 36.0994 43.507 35.9223 42.7253L34.8502 37.9939C33.6526 37.6469 32.5118 37.1656 31.4451 36.5672L27.1754 39.0145C26.5052 39.3986 25.6616 39.2853 25.1157 38.7378L22.1648 35.7778C21.5996 35.211 21.5008 34.3273 21.9266 33.6489L24.6634 29.289C24.3409 28.6054 24.0645 27.8958 23.838 27.1641L18.3793 25.6708C17.6345 25.4671 17.1179 24.7886 17.1179 24.0143V19.8283C17.1179 19.0267 17.671 18.3317 18.4503 18.154L24.0356 16.8808C24.2768 16.1967 24.5622 15.5337 24.8883 14.895L22.1499 10.0882C21.7669 9.41589 21.8799 8.56968 22.4257 8.02218L25.3767 5.06223C25.9418 4.49536 26.8228 4.39621 27.4992 4.82335L32.0981 7.7278C32.7337 7.40846 33.3931 7.12968 34.0729 6.89482L35.6036 1.26523ZM46.2183 21.8918C46.2183 25.9219 42.9611 29.189 38.9432 29.189C34.9253 29.189 31.6681 25.9219 31.6681 21.8918C31.6681 17.8616 34.9253 14.5945 38.9432 14.5945C42.9611 14.5945 46.2183 17.8616 46.2183 21.8918ZM0 52.7978L16.262 45.0712C18.9723 44.4989 25.3345 43.6977 29.1004 46.7883C30.5455 47.9743 31.426 49.0793 32.2124 50.0662C33.9875 52.2941 35.2829 53.9198 41.5109 54.5148C43.4348 54.6986 44.9468 54.8233 46.152 54.9228L46.1521 54.9228C50.5762 55.2879 50.8643 55.3116 52.2096 56.661C53.9214 58.378 52.554 62.2692 50.0698 63.0998C46.2183 64.3875 35.9476 63.9583 32.9519 63.0998C28.2445 61.3828 25.6768 61.812 25.6768 63.529C25.6768 64.9202 28.4863 65.5364 31.1459 66.1198C31.7688 66.2564 32.3835 66.3912 32.9519 66.5338C35.9476 67.285 48.6148 67.8215 50.9257 66.5338C51.2504 66.3529 51.5659 66.1834 51.8714 66.0193C53.9825 64.8854 55.6168 64.0076 56.4891 61.3828C56.8124 60.4097 66.9609 54.2538 72.6534 50.8008L72.6537 50.8006L72.6539 50.8006L72.6723 50.7894L73.124 50.5153L73.6069 50.2223C77.4585 48.9345 80.3859 52.372 78.3144 55.3733C75.4 59.5957 59.7443 69.2252 51.9272 74.0332C49.4135 75.5793 47.7104 76.6269 47.5022 76.8358C46.6463 77.6943 41.5109 80.6991 35.0917 77.6943C32.5981 76.33 29.0239 74.6044 26.0227 73.1555L26.0224 73.1554C23.358 71.869 21.1452 70.8008 20.5415 70.397C20.4543 70.3388 20.3672 70.2793 20.2797 70.2196C19.0775 69.3993 17.7995 68.5274 15.4061 69.9678C14.3363 70.6116 13.3735 71.2554 12.4107 71.8992L12.4105 71.8994C11.4476 72.5433 10.4847 73.1872 9.41484 73.8311C6.27656 67.9646 0.427947 54.944 0 52.7978ZM41.9388 51.51C45.3624 48.9345 52.3808 44.642 54.7773 44.642C57.1738 44.642 59.4847 45.6436 59.9126 45.9298L50.4978 51.9393L47.0742 51.51H41.9388ZM56.4891 57.0903C55.6332 54.944 55.2052 54.5148 53.4934 53.2271C54.9024 52.4419 56.5978 51.4557 58.2233 50.51L58.2234 50.51C61.0413 48.8708 63.6493 47.3536 64.1921 47.2175C65.9039 46.7884 68.4716 46.7883 69.7554 48.5053C67.4046 50.1027 63.9249 52.3066 61.1168 54.0852L61.1162 54.0855L61.116 54.0857C58.6421 55.6525 56.6895 56.8893 56.4891 57.0903Z" fill="#F40000"/>
</svg>
