<svg width="57" height="58" viewBox="0 0 57 58" fill="none" xmlns="http://www.w3.org/2000/svg">
<path fill-rule="evenodd" clip-rule="evenodd" d="M25.6886 0.928901C25.8352 0.38047 26.3233 0 26.8802 0H29.8913C30.468 0 30.9679 0.407282 31.0957 0.981211L31.986 4.97936C32.635 5.19128 33.2594 5.45928 33.8538 5.77779L37.4067 3.70562C37.8903 3.42359 38.499 3.50678 38.8928 3.90875L41.022 6.08188C41.4298 6.49806 41.5011 7.14684 41.1938 7.6449L38.992 11.2141C39.1854 11.6255 39.3565 12.05 39.5035 12.4859L43.5531 13.6131C44.0904 13.7627 44.4632 14.2608 44.4632 14.8292V17.9025C44.4632 18.4911 44.0641 19.0013 43.5018 19.1318L39.5845 20.0404C39.4365 20.5126 39.2606 20.9721 39.0587 21.4168L41.0327 24.9427C41.3091 25.4362 41.2275 26.0575 40.8337 26.4594L38.7045 28.6326C38.2968 29.0488 37.6611 29.1216 37.1731 28.808L34.1235 26.8482C33.5519 27.1743 32.9508 27.453 32.3253 27.6791L31.3256 31.4202C31.1791 31.9687 30.691 32.3491 30.1341 32.3491H27.123C26.5463 32.3491 26.0464 31.9419 25.9186 31.3679L25.1451 27.8943C24.281 27.6395 23.4578 27.2861 22.6882 26.8468L19.6076 28.6435C19.124 28.9256 18.5153 28.8424 18.1215 28.4404L15.9923 26.2673C15.5845 25.8511 15.5132 25.2023 15.8205 24.7042L17.7951 21.5033C17.5624 21.0015 17.363 20.4805 17.1995 19.9433L13.261 18.8469C12.7237 18.6974 12.3509 18.1992 12.3509 17.6308V14.5575C12.3509 13.9689 12.7499 13.4587 13.3123 13.3283L17.3421 12.3935C17.5161 11.8913 17.7221 11.4045 17.9574 10.9356L15.9816 7.40649C15.7052 6.91293 15.7867 6.29166 16.1806 5.8897L18.3098 3.71657C18.7175 3.30039 19.3532 3.2276 19.8412 3.54119L23.1594 5.67357C23.618 5.43912 24.0938 5.23445 24.5842 5.06202L25.6886 0.928901ZM33.3474 16.0724C33.3474 19.0313 30.9973 21.4299 28.0983 21.4299C25.1993 21.4299 22.8491 19.0313 22.8491 16.0724C22.8491 13.1136 25.1993 10.715 28.0983 10.715C30.9973 10.715 33.3474 13.1136 33.3474 16.0724ZM0 38.7629L11.7333 33.0903C13.6889 32.6701 18.2793 32.0818 20.9965 34.3509C22.0392 35.2216 22.6745 36.0329 23.2418 36.7575C24.5226 38.3931 25.4573 39.5867 29.9509 40.0235C31.339 40.1584 32.43 40.25 33.2995 40.323L33.2996 40.3231C36.4917 40.5911 36.6995 40.6085 37.6702 41.5992C38.9053 42.8598 37.9187 45.7166 36.1263 46.3264C33.3474 47.2719 25.9369 46.9567 23.7755 46.3264C20.379 45.0658 18.5263 45.381 18.5263 46.6416C18.5263 47.663 20.5534 48.1154 22.4724 48.5436C22.9218 48.6439 23.3653 48.7429 23.7755 48.8476C25.9369 49.3991 35.0765 49.793 36.7439 48.8476C36.9781 48.7148 37.2058 48.5903 37.4262 48.4699C38.9494 47.6374 40.1285 46.993 40.7579 45.0658C40.9912 44.3514 48.3136 39.8319 52.4208 37.2968L52.421 37.2967L52.4211 37.2966L52.4344 37.2884L52.7604 37.0872L53.1088 36.872C55.8878 35.9266 58 38.4503 56.5053 40.6538C54.4025 43.7538 43.1066 50.8235 37.4665 54.3535C35.6528 55.4886 34.424 56.2577 34.2737 56.4111C33.6562 57.0414 29.9509 59.2474 25.3193 57.0414C23.5202 56.0398 20.9413 54.7729 18.7758 53.7091L18.7757 53.709C16.8532 52.7646 15.2567 51.9803 14.8211 51.6839C14.7582 51.6411 14.6953 51.5975 14.6322 51.5536C13.7647 50.9514 12.8427 50.3112 11.1158 51.3688C10.3439 51.8414 9.64926 52.3141 8.95458 52.7868L8.95439 52.7869C8.25965 53.2596 7.56492 53.7324 6.79299 54.2051C4.52866 49.8981 0.308772 40.3386 0 38.7629ZM30.2597 37.8175C32.7298 35.9266 37.7937 32.7752 39.5228 32.7752C41.252 32.7752 42.9193 33.5105 43.2281 33.7206L36.4351 38.1326L33.9649 37.8175H30.2597ZM40.7579 41.9144C40.1404 40.3386 39.8316 40.0235 38.5965 39.0781C39.6131 38.5017 40.8364 37.7776 42.0092 37.0833L42.0093 37.0833C44.0424 35.8798 45.9242 34.7659 46.3158 34.666C47.5509 34.351 49.4035 34.3509 50.3299 35.6115C48.6337 36.7842 46.1231 38.4023 44.0969 39.7081L44.0965 39.7084L44.0963 39.7085C42.3114 40.8588 40.9025 41.7668 40.7579 41.9144Z" fill="#C90000"/>
</svg>
