<svg width="52" height="52" viewBox="0 0 52 52" fill="none" xmlns="http://www.w3.org/2000/svg">
<path fill-rule="evenodd" clip-rule="evenodd" d="M7.21722 5.07317C6.70733 6.55098 5.33151 7.60976 3.71429 7.60976C1.66294 7.60976 0 5.90625 0 3.80488C0 1.7035 1.66294 0 3.71429 0C5.33151 0 6.70733 1.05878 7.21722 2.53659H49.5238C50.8914 2.53659 52 3.67225 52 5.07317V26.6341C52 28.0351 50.8914 29.1707 49.5238 29.1707H25.2747L32.272 36.3387L30.521 38.1323L22.3264 29.7378L22.1795 29.8884L20.4286 28.0947L29.902 18.3902L31.653 20.1838L25.3562 26.6341H48.3416C49.1111 26.4228 49.3268 26.2114 49.5238 25.3659V6.2842C49.3175 5.49593 49.1111 5.27501 48.2857 5.07317H7.21722ZM52 48.1951C52 50.2965 50.3371 52 48.2857 52C46.2344 52 44.5714 50.2965 44.5714 48.1951C44.5714 46.0937 46.2344 44.3902 48.2857 44.3902C50.3371 44.3902 52 46.0937 52 48.1951ZM16.0952 29.1707C16.779 29.1707 17.3333 28.6029 17.3333 27.9024C17.3333 27.202 16.779 26.6341 16.0952 26.6341C15.4115 26.6341 14.8571 27.202 14.8571 27.9024C14.8571 28.6029 15.4115 29.1707 16.0952 29.1707ZM12.381 27.9024C12.381 28.6029 11.8266 29.1707 11.1429 29.1707C10.4591 29.1707 9.90476 28.6029 9.90476 27.9024C9.90476 27.202 10.4591 26.6341 11.1429 26.6341C11.8266 26.6341 12.381 27.202 12.381 27.9024ZM6.19048 29.1707C6.87426 29.1707 7.42857 28.6029 7.42857 27.9024C7.42857 27.202 6.87426 26.6341 6.19048 26.6341C5.5067 26.6341 4.95238 27.202 4.95238 27.9024C4.95238 28.6029 5.5067 29.1707 6.19048 29.1707ZM2.47619 27.9024C2.47619 28.6029 1.92188 29.1707 1.2381 29.1707C0.554314 29.1707 0 28.6029 0 27.9024C0 27.202 0.554314 26.6341 1.2381 26.6341C1.92188 26.6341 2.47619 27.202 2.47619 27.9024ZM21.0476 49.4634C21.7314 49.4634 22.2857 48.8956 22.2857 48.1951C22.2857 47.4947 21.7314 46.9268 21.0476 46.9268C20.3638 46.9268 19.8095 47.4947 19.8095 48.1951C19.8095 48.8956 20.3638 49.4634 21.0476 49.4634ZM17.3333 48.1951C17.3333 48.8956 16.779 49.4634 16.0952 49.4634C15.4115 49.4634 14.8571 48.8956 14.8571 48.1951C14.8571 47.4947 15.4115 46.9268 16.0952 46.9268C16.779 46.9268 17.3333 47.4947 17.3333 48.1951ZM11.1429 49.4634C11.8266 49.4634 12.381 48.8956 12.381 48.1951C12.381 47.4947 11.8266 46.9268 11.1429 46.9268C10.4591 46.9268 9.90476 47.4947 9.90476 48.1951C9.90476 48.8956 10.4591 49.4634 11.1429 49.4634ZM7.42857 48.1951C7.42857 48.8956 6.87426 49.4634 6.19048 49.4634C5.5067 49.4634 4.95238 48.8956 4.95238 48.1951C4.95238 47.4947 5.5067 46.9268 6.19048 46.9268C6.87426 46.9268 7.42857 47.4947 7.42857 48.1951ZM40.8571 49.4634C41.5409 49.4634 42.0952 48.8956 42.0952 48.1951C42.0952 47.4947 41.5409 46.9268 40.8571 46.9268C40.1734 46.9268 39.619 47.4947 39.619 48.1951C39.619 48.8956 40.1734 49.4634 40.8571 49.4634ZM37.1429 48.1951C37.1429 48.8956 36.5885 49.4634 35.9048 49.4634C35.221 49.4634 34.6667 48.8956 34.6667 48.1951C34.6667 47.4947 35.221 46.9268 35.9048 46.9268C36.5885 46.9268 37.1429 47.4947 37.1429 48.1951ZM30.9524 49.4634C31.6362 49.4634 32.1905 48.8956 32.1905 48.1951C32.1905 47.4947 31.6362 46.9268 30.9524 46.9268C30.2686 46.9268 29.7143 47.4947 29.7143 48.1951C29.7143 48.8956 30.2686 49.4634 30.9524 49.4634ZM27.2381 48.1951C27.2381 48.8956 26.6838 49.4634 26 49.4634C25.3162 49.4634 24.7619 48.8956 24.7619 48.1951C24.7619 47.4947 25.3162 46.9268 26 46.9268C26.6838 46.9268 27.2381 47.4947 27.2381 48.1951ZM1.2381 34.2439C1.92188 34.2439 2.47619 33.6761 2.47619 32.9756C2.47619 32.2752 1.92188 31.7073 1.2381 31.7073C0.554314 31.7073 0 32.2752 0 32.9756C0 33.6761 0.554314 34.2439 1.2381 34.2439ZM2.47619 38.0488C2.47619 38.7492 1.92188 39.3171 1.2381 39.3171C0.554314 39.3171 0 38.7492 0 38.0488C0 37.3483 0.554314 36.7805 1.2381 36.7805C1.92188 36.7805 2.47619 37.3483 2.47619 38.0488ZM1.2381 44.3902C1.92188 44.3902 2.47619 43.8224 2.47619 43.122C2.47619 42.4215 1.92188 41.8537 1.2381 41.8537C0.554314 41.8537 0 42.4215 0 43.122C0 43.8224 0.554314 44.3902 1.2381 44.3902ZM2.47619 48.1951C2.47619 48.8956 1.92188 49.4634 1.2381 49.4634C0.554314 49.4634 0 48.8956 0 48.1951C0 47.4947 0.554314 46.9268 1.2381 46.9268C1.92188 46.9268 2.47619 47.4947 2.47619 48.1951Z" fill="#C90000"/>
</svg>
