<svg width="72" height="71" viewBox="0 0 72 71" fill="none" xmlns="http://www.w3.org/2000/svg">
<path fill-rule="evenodd" clip-rule="evenodd" d="M9.99308 6.92683C9.28707 8.9446 7.38209 10.3902 5.14286 10.3902C2.30254 10.3902 0 8.06431 0 5.19512C0 2.32594 2.30254 0 5.14286 0C7.38209 0 9.28707 1.44564 9.99308 3.46341H68.5714C70.465 3.46341 72 5.01404 72 6.92683V36.3659C72 38.2786 70.465 39.8293 68.5714 39.8293H34.9957L44.6843 49.6163L42.2599 52.0653L30.9135 40.6036L30.7101 40.8091L28.2857 38.3601L41.4028 25.1097L43.8272 27.5587L35.1086 36.3659H66.9345C68 36.0772 68.2986 35.7886 68.5714 34.6341V8.58035C68.2857 7.50407 68 7.20242 66.8571 6.92683H9.99308ZM72 65.8049C72 68.6741 69.6975 71 66.8571 71C64.0168 71 61.7143 68.6741 61.7143 65.8049C61.7143 62.9357 64.0168 60.6098 66.8571 60.6098C69.6975 60.6098 72 62.9357 72 65.8049ZM22.2857 39.8293C23.2325 39.8293 24 39.054 24 38.0976C24 37.1412 23.2325 36.3659 22.2857 36.3659C21.3389 36.3659 20.5714 37.1412 20.5714 38.0976C20.5714 39.054 21.3389 39.8293 22.2857 39.8293ZM17.1429 38.0976C17.1429 39.054 16.3753 39.8293 15.4286 39.8293C14.4818 39.8293 13.7143 39.054 13.7143 38.0976C13.7143 37.1412 14.4818 36.3659 15.4286 36.3659C16.3753 36.3659 17.1429 37.1412 17.1429 38.0976ZM8.57143 39.8293C9.5182 39.8293 10.2857 39.054 10.2857 38.0976C10.2857 37.1412 9.5182 36.3659 8.57143 36.3659C7.62465 36.3659 6.85714 37.1412 6.85714 38.0976C6.85714 39.054 7.62465 39.8293 8.57143 39.8293ZM3.42857 38.0976C3.42857 39.054 2.66106 39.8293 1.71429 39.8293C0.767512 39.8293 0 39.054 0 38.0976C0 37.1412 0.767512 36.3659 1.71429 36.3659C2.66106 36.3659 3.42857 37.1412 3.42857 38.0976ZM29.1429 67.5366C30.0896 67.5366 30.8571 66.7613 30.8571 65.8049C30.8571 64.8485 30.0896 64.0732 29.1429 64.0732C28.1961 64.0732 27.4286 64.8485 27.4286 65.8049C27.4286 66.7613 28.1961 67.5366 29.1429 67.5366ZM24 65.8049C24 66.7613 23.2325 67.5366 22.2857 67.5366C21.3389 67.5366 20.5714 66.7613 20.5714 65.8049C20.5714 64.8485 21.3389 64.0732 22.2857 64.0732C23.2325 64.0732 24 64.8485 24 65.8049ZM15.4286 67.5366C16.3753 67.5366 17.1429 66.7613 17.1429 65.8049C17.1429 64.8485 16.3753 64.0732 15.4286 64.0732C14.4818 64.0732 13.7143 64.8485 13.7143 65.8049C13.7143 66.7613 14.4818 67.5366 15.4286 67.5366ZM10.2857 65.8049C10.2857 66.7613 9.5182 67.5366 8.57143 67.5366C7.62465 67.5366 6.85714 66.7613 6.85714 65.8049C6.85714 64.8485 7.62465 64.0732 8.57143 64.0732C9.5182 64.0732 10.2857 64.8485 10.2857 65.8049ZM56.5714 67.5366C57.5182 67.5366 58.2857 66.7613 58.2857 65.8049C58.2857 64.8485 57.5182 64.0732 56.5714 64.0732C55.6247 64.0732 54.8571 64.8485 54.8571 65.8049C54.8571 66.7613 55.6247 67.5366 56.5714 67.5366ZM51.4286 65.8049C51.4286 66.7613 50.6611 67.5366 49.7143 67.5366C48.7675 67.5366 48 66.7613 48 65.8049C48 64.8485 48.7675 64.0732 49.7143 64.0732C50.6611 64.0732 51.4286 64.8485 51.4286 65.8049ZM42.8571 67.5366C43.8039 67.5366 44.5714 66.7613 44.5714 65.8049C44.5714 64.8485 43.8039 64.0732 42.8571 64.0732C41.9104 64.0732 41.1429 64.8485 41.1429 65.8049C41.1429 66.7613 41.9104 67.5366 42.8571 67.5366ZM37.7143 65.8049C37.7143 66.7613 36.9468 67.5366 36 67.5366C35.0532 67.5366 34.2857 66.7613 34.2857 65.8049C34.2857 64.8485 35.0532 64.0732 36 64.0732C36.9468 64.0732 37.7143 64.8485 37.7143 65.8049ZM1.71429 46.7561C2.66106 46.7561 3.42857 45.9808 3.42857 45.0244C3.42857 44.068 2.66106 43.2927 1.71429 43.2927C0.767512 43.2927 0 44.068 0 45.0244C0 45.9808 0.767512 46.7561 1.71429 46.7561ZM3.42857 51.9512C3.42857 52.9076 2.66106 53.6829 1.71429 53.6829C0.767512 53.6829 0 52.9076 0 51.9512C0 50.9948 0.767512 50.2195 1.71429 50.2195C2.66106 50.2195 3.42857 50.9948 3.42857 51.9512ZM1.71429 60.6098C2.66106 60.6098 3.42857 59.8344 3.42857 58.878C3.42857 57.9217 2.66106 57.1463 1.71429 57.1463C0.767512 57.1463 0 57.9217 0 58.878C0 59.8344 0.767512 60.6098 1.71429 60.6098ZM3.42857 65.8049C3.42857 66.7613 2.66106 67.5366 1.71429 67.5366C0.767512 67.5366 0 66.7613 0 65.8049C0 64.8485 0.767512 64.0732 1.71429 64.0732C2.66106 64.0732 3.42857 64.8485 3.42857 65.8049Z" fill="#F40000"/>
</svg>
