<svg width="40" height="52" viewBox="0 0 40 52" fill="none" xmlns="http://www.w3.org/2000/svg">
<path fill-rule="evenodd" clip-rule="evenodd" d="M38.2612 0H1.74003C0.77835 0 0 0.768498 0 1.71437V48.6298C0 49.575 0.77835 50.3416 1.74003 50.3416H23.0122L23.9292 44.8533C22.9234 43.7219 22.2939 42.2604 22.2939 40.6441C22.2939 37.099 25.2202 34.2162 28.8214 34.2162C32.4207 34.2162 35.3477 37.099 35.3477 40.6441C35.3477 42.2604 34.7176 43.7225 33.7138 44.8533L34.6268 50.3416H34.7176H38.2612C39.2235 50.3416 40 49.575 40 48.6298V1.71437C39.9994 0.768498 39.2229 0 38.2612 0ZM15.4834 41.0542H8.91432V39.6071H15.4841L15.4834 41.0542ZM19.4199 38.1141H8.91432V35.2237H19.4206L19.4199 38.1141ZM31.0869 29.6913H8.91432V26.7977H31.0876L31.0869 29.6913ZM31.0869 24.8935H8.91432V22.0006H31.0876L31.0869 24.8935ZM31.0869 20.4076H8.91432V17.5147H31.0876L31.0869 20.4076ZM31.0869 15.9192H8.91432V13.0281H31.0876L31.0869 15.9192ZM31.0869 11.4333H8.91432V8.54038H31.0876L31.0869 11.4333ZM28.8219 46.718C27.5263 46.718 26.3252 46.3173 25.3336 45.6444L24.2737 52L28.8219 49.4304L33.3649 52L32.3088 45.6444C31.3147 46.318 30.1161 46.718 28.8219 46.718ZM28.8214 35.7098C31.585 35.7098 33.8307 37.9198 33.8307 40.6435C33.8307 43.3691 31.5856 45.5765 28.8214 45.5765C26.0547 45.5765 23.8104 43.3691 23.8104 40.6435C23.8104 37.9198 26.0547 35.7098 28.8214 35.7098ZM28.8222 37.3883C26.9984 37.3883 25.5152 38.848 25.5152 40.6435C25.5152 42.4396 26.9984 43.8998 28.8222 43.8998C30.6437 43.8998 32.1264 42.4396 32.1264 40.6435C32.1264 38.8474 30.6437 37.3883 28.8222 37.3883Z" fill="#C90000"/>
</svg>
