<svg width="54" height="71" viewBox="0 0 54 71" fill="none" xmlns="http://www.w3.org/2000/svg">
<path fill-rule="evenodd" clip-rule="evenodd" d="M51.6526 0H2.34903C1.05077 0 0 1.0493 0 2.34078V66.3984C0 67.689 1.05077 68.7357 2.34903 68.7357H31.0665L32.3044 61.242C30.9466 59.6972 30.0968 57.7017 30.0968 55.4949C30.0968 50.6544 34.0473 46.7183 38.9089 46.7183C43.768 46.7183 47.7194 50.6544 47.7194 55.4949C47.7194 57.7017 46.8687 59.6981 45.5136 61.242L46.7462 68.7357H46.8687H51.6526C52.9518 68.7357 54 67.689 54 66.3984V2.34078C53.9992 1.0493 52.9509 0 51.6526 0ZM20.9027 56.0547H12.0343V54.0789H20.9035L20.9027 56.0547ZM26.2169 52.0404H12.0343V48.0939H26.2178L26.2169 52.0404ZM41.9674 40.5401H12.0343V36.5892H41.9682L41.9674 40.5401ZM41.9674 33.9892H12.0343V30.0393H41.9682L41.9674 33.9892ZM41.9674 27.8642H12.0343V23.9143H41.9682L41.9674 27.8642ZM41.9674 21.7358H12.0343V17.7884H41.9682L41.9674 21.7358ZM41.9674 15.6108H12.0343V11.6609H41.9682L41.9674 15.6108ZM38.9095 63.788C37.1605 63.788 35.539 63.2409 34.2003 62.3222L32.7695 71L38.9095 67.4915L45.0426 71L43.6169 62.3222C42.2748 63.2419 40.6567 63.788 38.9095 63.788ZM38.9089 48.7576C42.6397 48.7576 45.6715 51.7751 45.6715 55.4939C45.6715 59.2155 42.6406 62.2294 38.9089 62.2294C35.1738 62.2294 32.144 59.2155 32.144 55.4939C32.144 51.7751 35.1738 48.7576 38.9089 48.7576ZM38.91 51.0494C36.4479 51.0494 34.4455 53.0424 34.4455 55.4939C34.4455 57.9464 36.4479 59.9402 38.91 59.9402C41.369 59.9402 43.3706 57.9464 43.3706 55.4939C43.3706 53.0416 41.369 51.0494 38.91 51.0494Z" fill="#F40000"/>
</svg>
