<svg width="79" height="45" viewBox="0 0 79 45" fill="none" xmlns="http://www.w3.org/2000/svg">
<path fill-rule="evenodd" clip-rule="evenodd" d="M43.1837 3.53833C43.1621 3.55103 43.1405 3.55945 43.1189 3.56494C43.0768 3.57581 43.0347 3.57581 42.9926 3.57581C42.4104 3.57581 41.9946 3.07678 41.9115 2.66101C41.9115 2.16211 42.3273 1.74634 42.743 1.66321L49.1462 0.0831299C49.2294 0 49.3125 0 49.3958 0C49.8115 0 50.1442 0.16626 50.3104 0.498901L53.3873 5.4884L53.3877 5.4895C53.4399 5.59399 53.4922 5.69836 53.5237 5.80286C53.5422 5.86438 53.5536 5.9259 53.5536 5.98743C53.5536 6.65259 52.9714 7.06848 52.4725 7.06848C52.0568 7.06848 51.7241 6.9021 51.5579 6.56946L48.98 2.07898L43.2421 3.49268C43.2225 3.51208 43.2031 3.52698 43.1837 3.53833ZM66.36 18.8767C64.6136 18.8767 63.0337 19.2092 61.5369 19.8745L55.1337 8.64819C54.8843 8.23242 54.3021 7.81665 53.72 7.81665C52.8053 7.81665 52.14 8.48193 52.14 9.39661C52.14 9.59387 52.1919 9.79114 52.2546 10.0291L52.255 10.0302C52.2716 10.093 52.2889 10.1588 52.3063 10.2283L58.7926 21.4546C55.7158 23.783 53.8032 27.4419 53.8032 31.5999C53.8032 38.5851 59.4579 44.2397 66.4431 44.2397C73.4285 44.2397 79 38.502 79 31.5999C79 24.6978 73.3453 18.8767 66.36 18.8767ZM66.36 39.4166C61.9526 39.4166 58.46 35.9241 58.46 31.5166C58.46 29.1051 59.541 27.0261 61.2042 25.6124L65.1127 32.265C65.3622 32.6809 65.9442 33.0967 66.5264 33.0967C67.441 33.0967 68.1063 32.4314 68.1063 31.5166C68.1063 31.3192 68.0542 31.1218 67.9913 30.8833L67.9659 30.7865L67.9401 30.6851L64.0316 24.0325C64.8632 23.783 65.6116 23.6167 66.5264 23.6167C70.9337 23.6167 74.4264 27.1093 74.4264 31.5166C74.26 35.9241 70.7673 39.4166 66.36 39.4166ZM5.57153 17.7126C7.65051 19.459 30.6853 19.1263 30.6853 19.1263H46.2358C48.8969 19.1263 51.3916 14.9684 51.3916 12.9727C51.3916 12.0579 50.4768 8.64844 42.66 8.64844C41.3204 8.64844 39.8544 9.34387 38.2195 10.1195C36.6067 10.8845 34.8296 11.7275 32.8474 12.0579C30.0361 12.554 27.4304 12.7007 25.0405 12.8352H25.0391C22.6222 12.9712 20.426 13.0948 18.4611 13.5548C17.9514 13.6185 16.2704 13.3284 14.2452 12.9788C10.9835 12.4158 6.82935 11.6987 5.23889 12.0579C2.91052 12.5569 3.32629 15.8832 5.57153 17.7126ZM64.0316 15.5504C64.0316 15.5504 64.9463 15.5504 64.9463 14.7189V8.48193C64.9463 7.65039 64.0316 7.65039 64.0316 7.65039C61.2874 7.98303 59.3748 10.1451 59.3748 11.5588C59.3748 13.1388 61.2874 15.2178 64.0316 15.5504ZM25.1136 21.2886H51.2252C52.5558 21.2886 53.4705 22.6191 52.9716 23.7833L46.901 37.7538C46.6516 38.5023 45.9032 38.9181 45.2379 38.9181H30.9347C30.4358 38.9181 30.1031 38.8348 29.7705 38.5854L25.8621 35.6749C25.5294 35.4254 25.28 35.0096 25.1969 34.5939H22.7021C21.8705 39.9991 17.2136 44.157 11.4758 44.157C5.07263 44.157 0 39.0012 0 32.6812C0 26.3612 5.07263 21.2886 11.4758 21.2886C17.0474 21.2886 21.7874 25.4464 22.7853 30.8517H24.5316L23.2842 23.4507C23.1179 22.3696 23.9495 21.2886 25.1136 21.2886ZM4.65686 32.7644C4.65686 36.4233 7.65051 39.417 11.3094 39.417C14.3864 39.417 16.9642 37.4213 17.7126 34.8433H11.0601C10.561 34.8433 10.2284 34.2612 10.2284 33.5959V32.1823C10.2284 31.4338 10.6442 30.9349 11.0601 30.9349H17.7126C16.9642 28.1075 14.3864 26.1117 11.3094 26.1117C7.65051 26.1117 4.65686 29.1055 4.65686 32.7644Z" fill="#C90000"/>
</svg>
