<svg width="54" height="24" viewBox="0 0 54 24" fill="none" xmlns="http://www.w3.org/2000/svg">
<path d="M51.2253 0.288574H25.1137C23.9495 0.288574 23.1179 1.36963 23.2842 2.45068L24.5316 9.85173H22.7853C21.7874 4.44647 17.0474 0.288574 11.4758 0.288574C5.07263 0.288574 0 5.36121 0 11.6812C0 18.0012 5.07263 23.157 11.4758 23.157C17.2137 23.157 21.8705 18.9991 22.7021 13.5938H25.1968C25.28 14.0096 25.5295 14.4254 25.8621 14.6749L29.7705 17.5854C30.1032 17.8349 30.4358 17.918 30.9347 17.918H45.2379C45.9032 17.918 46.6516 17.5023 46.9011 16.7538L52.9716 2.78331C53.4705 1.6191 52.5558 0.288574 51.2253 0.288574ZM11.3095 18.417C7.65053 18.417 4.65684 15.4233 4.65684 11.7644C4.65684 8.10542 7.65053 5.11173 11.3095 5.11173C14.3863 5.11173 16.9642 7.10752 17.7126 9.93489H11.06C10.6442 9.93489 10.2284 10.4338 10.2284 11.1823V12.5959C10.2284 13.2612 10.5611 13.8433 11.06 13.8433H17.7126C16.9642 16.4212 14.3863 18.417 11.3095 18.417Z" fill="#C90000"/>
</svg>
