<svg width="202" height="74" viewBox="0 0 202 74" fill="none" xmlns="http://www.w3.org/2000/svg">
<path d="M107.764 58.336C106.215 58.336 104.712 58.1307 103.256 57.72C101.819 57.2907 100.661 56.74 99.784 56.068L101.324 52.652C102.164 53.268 103.163 53.7627 104.32 54.136C105.477 54.5093 106.635 54.696 107.792 54.696C109.08 54.696 110.032 54.5093 110.648 54.136C111.264 53.744 111.572 53.2307 111.572 52.596C111.572 52.1293 111.385 51.7467 111.012 51.448C110.657 51.1307 110.191 50.8787 109.612 50.692C109.052 50.5053 108.287 50.3 107.316 50.076C105.823 49.7213 104.6 49.3667 103.648 49.012C102.696 48.6573 101.875 48.088 101.184 47.304C100.512 46.52 100.176 45.4747 100.176 44.168C100.176 43.0293 100.484 42.0027 101.1 41.088C101.716 40.1547 102.64 39.4173 103.872 38.876C105.123 38.3347 106.644 38.064 108.436 38.064C109.687 38.064 110.909 38.2133 112.104 38.512C113.299 38.8107 114.344 39.24 115.24 39.8L113.84 43.244C112.029 42.2173 110.219 41.704 108.408 41.704C107.139 41.704 106.196 41.9093 105.58 42.32C104.983 42.7307 104.684 43.272 104.684 43.944C104.684 44.616 105.029 45.12 105.72 45.456C106.429 45.7733 107.503 46.0907 108.94 46.408C110.433 46.7627 111.656 47.1173 112.608 47.472C113.56 47.8267 114.372 48.3867 115.044 49.152C115.735 49.9173 116.08 50.9533 116.08 52.26C116.08 53.38 115.763 54.4067 115.128 55.34C114.512 56.2547 113.579 56.9827 112.328 57.524C111.077 58.0653 109.556 58.336 107.764 58.336ZM128.671 58.336C126.637 58.336 124.798 57.8973 123.155 57.02C121.531 56.1427 120.253 54.9387 119.319 53.408C118.405 51.8587 117.947 50.1227 117.947 48.2C117.947 46.2773 118.405 44.5507 119.319 43.02C120.253 41.4707 121.531 40.2573 123.155 39.38C124.798 38.5027 126.637 38.064 128.671 38.064C130.706 38.064 132.535 38.5027 134.159 39.38C135.783 40.2573 137.062 41.4707 137.995 43.02C138.929 44.5507 139.395 46.2773 139.395 48.2C139.395 50.1227 138.929 51.8587 137.995 53.408C137.062 54.9387 135.783 56.1427 134.159 57.02C132.535 57.8973 130.706 58.336 128.671 58.336ZM128.671 54.472C129.829 54.472 130.874 54.2107 131.807 53.688C132.741 53.1467 133.469 52.4 133.991 51.448C134.533 50.496 134.803 49.4133 134.803 48.2C134.803 46.9867 134.533 45.904 133.991 44.952C133.469 44 132.741 43.2627 131.807 42.74C130.874 42.1987 129.829 41.928 128.671 41.928C127.514 41.928 126.469 42.1987 125.535 42.74C124.602 43.2627 123.865 44 123.323 44.952C122.801 45.904 122.539 46.9867 122.539 48.2C122.539 49.4133 122.801 50.496 123.323 51.448C123.865 52.4 124.602 53.1467 125.535 53.688C126.469 54.2107 127.514 54.472 128.671 54.472ZM149.944 50.3L147.312 53.044V58H142.804V38.4H147.312V47.556L155.992 38.4H161.032L152.912 47.136L161.508 58H156.216L149.944 50.3ZM172.312 58.336C170.277 58.336 168.439 57.8973 166.796 57.02C165.172 56.1427 163.893 54.9387 162.96 53.408C162.045 51.8587 161.588 50.1227 161.588 48.2C161.588 46.2773 162.045 44.5507 162.96 43.02C163.893 41.4707 165.172 40.2573 166.796 39.38C168.439 38.5027 170.277 38.064 172.312 38.064C174.347 38.064 176.176 38.5027 177.8 39.38C179.424 40.2573 180.703 41.4707 181.636 43.02C182.569 44.5507 183.036 46.2773 183.036 48.2C183.036 50.1227 182.569 51.8587 181.636 53.408C180.703 54.9387 179.424 56.1427 177.8 57.02C176.176 57.8973 174.347 58.336 172.312 58.336ZM172.312 54.472C173.469 54.472 174.515 54.2107 175.448 53.688C176.381 53.1467 177.109 52.4 177.632 51.448C178.173 50.496 178.444 49.4133 178.444 48.2C178.444 46.9867 178.173 45.904 177.632 44.952C177.109 44 176.381 43.2627 175.448 42.74C174.515 42.1987 173.469 41.928 172.312 41.928C171.155 41.928 170.109 42.1987 169.176 42.74C168.243 43.2627 167.505 44 166.964 44.952C166.441 45.904 166.18 46.9867 166.18 48.2C166.18 49.4133 166.441 50.496 166.964 51.448C167.505 52.4 168.243 53.1467 169.176 53.688C170.109 54.2107 171.155 54.472 172.312 54.472ZM186.445 38.4H190.981V54.304H200.809V58H186.445V38.4Z" fill="white"/>
<path fill-rule="evenodd" clip-rule="evenodd" d="M0 0L49.601 28.7372L53.1106 42.0526L67.5 50.9879V55.1927L65.5971 53.5054L58.8507 52.7399L14 60.205L37.6683 47.1334L36.6154 32.066L0 0ZM54.2291 28.9532C53.4234 28.9532 52.6284 28.9986 51.8465 29.0868L51.1595 25.6901C52.1648 25.5647 53.1893 25.5 54.2291 25.5C67.6336 25.5 78.5 36.2452 78.5 49.5C78.5 62.7548 67.6336 73.5 54.2291 73.5C44.9848 73.5 36.9476 68.3895 32.8492 60.8697L32.5 60.205L35.9863 59.3446C39.5133 65.7217 46.3604 70.0468 54.2291 70.0468C65.7049 70.0468 75.0078 60.8477 75.0078 49.5C75.0078 38.1523 65.7049 28.9532 54.2291 28.9532Z" fill="white"/>
</svg>
