<svg width="79" height="74" viewBox="0 0 79 74" fill="none" xmlns="http://www.w3.org/2000/svg">
<path fill-rule="evenodd" clip-rule="evenodd" d="M0 0L49.601 28.7372L53.1106 42.0526L67.5 50.9879V55.1927L65.5971 53.5054L58.8507 52.7399L14 60.205L37.6683 47.1334L36.6154 32.066L0 0ZM54.2291 28.9532C53.4234 28.9532 52.6284 28.9986 51.8465 29.0868L51.1595 25.6901C52.1648 25.5647 53.1893 25.5 54.2291 25.5C67.6336 25.5 78.5 36.2452 78.5 49.5C78.5 62.7548 67.6336 73.5 54.2291 73.5C44.9848 73.5 36.9476 68.3895 32.8492 60.8697L32.5 60.205L35.9863 59.3446C39.5133 65.7217 46.3604 70.0468 54.2291 70.0468C65.7049 70.0468 75.0078 60.8477 75.0078 49.5C75.0078 38.1523 65.7049 28.9532 54.2291 28.9532Z" fill="#2B1E23"/>
</svg>
