<svg width="27" height="28" viewBox="0 0 27 28" fill="none" xmlns="http://www.w3.org/2000/svg">
<path d="M24 0.0170898H3C1.3425 0.0170898 0 1.38335 0 3.07018V24.4418C0 26.1286 1.3425 27.4949 3 27.4949H24C25.6575 27.4949 27 26.1286 27 24.4418V3.07018C27 1.38335 25.6575 0.0170898 24 0.0170898ZM22.3605 19.3798L19.758 19.4164C19.758 19.4164 19.197 19.5278 18.462 19.0119C17.4885 18.331 16.5705 16.5602 15.855 16.7908C15.129 17.0258 15.1515 18.6195 15.1515 18.6195C15.1515 18.6195 15.1575 18.9004 14.991 19.0836C14.811 19.2805 14.4585 19.2607 14.4585 19.2607H13.293C13.293 19.2607 10.722 19.4775 8.4555 17.0732C5.9865 14.4521 3.8055 9.27863 3.8055 9.27863C3.8055 9.27863 3.678 8.95195 3.8145 8.78556C3.969 8.60084 4.386 8.59626 4.386 8.59626L7.1715 8.58253C7.1715 8.58253 7.434 8.62985 7.623 8.77029C7.7775 8.88631 7.866 9.1046 7.866 9.1046C7.866 9.1046 8.316 10.2663 8.913 11.3181C10.077 13.3682 10.6185 13.817 11.013 13.5972C11.589 13.2766 11.4165 10.6998 11.4165 10.6998C11.4165 10.6998 11.427 9.76407 11.127 9.34732C10.893 9.02217 10.4535 8.926 10.26 8.90157C10.1025 8.8802 10.359 8.50925 10.6935 8.34133C11.1945 8.09251 12.081 8.07724 13.1265 8.08792C13.941 8.09708 14.1765 8.14746 14.4945 8.22684C15.456 8.46346 15.129 9.37633 15.129 11.5669C15.129 12.2691 15.0045 13.2553 15.501 13.5804C15.7155 13.7209 16.2375 13.6018 17.541 11.3425C18.1605 10.2709 18.624 9.01148 18.624 9.01148C18.624 9.01148 18.726 8.78708 18.8835 8.69091C19.0455 8.59169 19.263 8.62222 19.263 8.62222L22.1955 8.6039C22.1955 8.6039 23.076 8.49551 23.22 8.9031C23.37 9.32901 22.8915 10.3228 21.693 11.9486C19.7265 14.62 19.5075 14.3712 21.141 15.916C22.701 17.3922 23.0235 18.1097 23.0775 18.1997C23.7225 19.2928 22.3605 19.3798 22.3605 19.3798Z" fill="#2B1E23"/>
</svg>
