<svg width="27" height="28" viewBox="0 0 27 28" fill="none" xmlns="http://www.w3.org/2000/svg">
<path d="M7.5 0.0170898C3.3585 0.0170898 0 3.43502 0 7.64981V19.8622C0 24.0769 3.3585 27.4949 7.5 27.4949H19.5C23.6415 27.4949 27 24.0769 27 19.8622V7.64981C27 3.43502 23.6415 0.0170898 19.5 0.0170898H7.5ZM22.5 3.07018C23.328 3.07018 24 3.75407 24 4.59672C24 5.43937 23.328 6.12326 22.5 6.12326C21.672 6.12326 21 5.43937 21 4.59672C21 3.75407 21.672 3.07018 22.5 3.07018ZM13.5 6.12326C17.6415 6.12326 21 9.54119 21 13.756C21 17.9708 17.6415 21.3887 13.5 21.3887C9.3585 21.3887 6 17.9708 6 13.756C6 9.54119 9.3585 6.12326 13.5 6.12326ZM13.5 9.17635C12.3065 9.17635 11.1619 9.65885 10.318 10.5177C9.4741 11.3765 9 12.5414 9 13.756C9 14.9706 9.4741 16.1354 10.318 16.9943C11.1619 17.8531 12.3065 18.3356 13.5 18.3356C14.6935 18.3356 15.8381 17.8531 16.682 16.9943C17.5259 16.1354 18 14.9706 18 13.756C18 12.5414 17.5259 11.3765 16.682 10.5177C15.8381 9.65885 14.6935 9.17635 13.5 9.17635Z" fill="#2B1E23"/>
</svg>
