<svg width="27" height="31" viewBox="0 0 27 31" fill="none" xmlns="http://www.w3.org/2000/svg">
<path d="M4.01953 0L6.2373 8.15711V12.0687H8.15918V8.15711L10.4062 0H8.46973L7.66406 3.71184C7.43756 4.79564 7.29354 5.56594 7.22754 6.02541H7.16895C7.07445 5.38276 6.93042 4.60672 6.73242 3.69694L5.95605 0H4.01953ZM12.6475 3.07979C11.9965 3.07979 11.4718 3.20925 11.0713 3.47333C10.6708 3.73589 10.3755 4.156 10.1865 4.73148C9.99902 5.30696 9.90527 6.06875 9.90527 7.01822V8.30022C9.90527 9.239 9.98637 9.99082 10.1514 10.5571C10.3164 11.1235 10.5948 11.5407 10.9863 11.8093C11.3778 12.078 11.9165 12.2118 12.6035 12.2118C13.2725 12.2118 13.8043 12.0794 14.1943 11.8153C14.5843 11.5512 14.867 11.137 15.041 10.5661C15.215 9.99518 15.3018 9.24053 15.3018 8.30022V7.01822C15.3018 6.07027 15.2137 5.31133 15.0352 4.74043C14.8567 4.17105 14.5725 3.75094 14.1855 3.48228C13.7985 3.21362 13.288 3.07979 12.6475 3.07979ZM16.3184 3.25271V9.83862C16.3184 10.6538 16.4526 11.2533 16.7256 11.6364C16.9986 12.0196 17.4226 12.2118 17.9971 12.2118C18.8251 12.2118 19.4493 11.8046 19.8633 10.9894H19.9043L20.0742 12.0687H21.6006V3.25271H19.6523V10.256C19.5773 10.4194 19.4626 10.5532 19.3066 10.6585C19.1506 10.7654 18.9898 10.8165 18.8203 10.8165C18.6223 10.8165 18.481 10.734 18.3955 10.5661C18.31 10.3982 18.2666 10.1162 18.2666 9.72235V3.25271H16.3184ZM12.6035 4.44527C12.8765 4.44527 13.0697 4.59045 13.1777 4.88353C13.2857 5.17509 13.3389 5.63938 13.3389 6.27287V9.01874C13.3389 9.67054 13.2857 10.142 13.1777 10.4289C13.0697 10.7159 12.8779 10.8597 12.6064 10.8612C12.3334 10.8612 12.1445 10.7159 12.041 10.4289C11.936 10.142 11.8857 9.67054 11.8857 9.01874V6.27287C11.8857 5.64091 11.9389 5.17662 12.0469 4.88353C12.1549 4.59198 12.3395 4.44527 12.6035 4.44527ZM3 13.7383C1.35 13.7383 0 15.1121 0 16.7912V27.4766C0 29.1557 1.35 30.5295 3 30.5295H24C25.65 30.5295 27 29.1557 27 27.4766V16.7912C27 15.1121 25.65 13.7383 24 13.7383H3ZM13.5732 16.7912H15.1582V20.7118H15.1699C15.3124 20.4279 15.5168 20.2001 15.7793 20.0261C16.0418 19.852 16.3259 19.7667 16.6289 19.7667C17.0189 19.7667 17.3239 19.8721 17.5459 20.0827C17.7679 20.2934 17.9303 20.6337 18.0293 21.1024C18.1283 21.5725 18.1758 22.2247 18.1758 23.0582V24.2358H18.1787C18.1787 25.3456 18.0457 26.1585 17.7832 26.6806C17.5207 27.2026 17.1122 27.4647 16.5557 27.4647C16.2452 27.4647 15.964 27.392 15.709 27.247C15.454 27.102 15.2623 26.9026 15.1348 26.6507H15.0996L14.9326 27.3544H13.5732V16.7912ZM3.72949 17.1669H8.60742V18.5175H6.97266V27.3544H5.36426V18.5175H3.72949V17.1669ZM21.1465 19.7697C21.7105 19.7697 22.1443 19.875 22.4473 20.0857C22.7488 20.2964 22.9614 20.6254 23.0859 21.0696C23.2089 21.5153 23.2705 22.1304 23.2705 22.915V24.1911H20.5166V24.5697C20.5166 25.0475 20.5291 25.4049 20.5576 25.643C20.5861 25.8812 20.6435 26.0564 20.7305 26.1648C20.8175 26.2747 20.9518 26.3287 21.1348 26.3287C21.3808 26.3287 21.5501 26.2304 21.6416 26.0366C21.7331 25.8427 21.7835 25.521 21.791 25.0676L23.2119 25.1511C23.2194 25.2152 23.2236 25.3065 23.2236 25.4194C23.2236 26.1079 23.0375 26.6219 22.667 26.9608C22.2965 27.3012 21.7761 27.4706 21.0996 27.4706C20.2881 27.4706 19.7186 27.21 19.3916 26.6925C19.0646 26.175 18.9023 25.3748 18.9023 24.2895V22.9896C18.9023 21.8722 19.0717 21.0563 19.4092 20.5418C19.7467 20.0274 20.3275 19.7697 21.1465 19.7697ZM8.11523 19.9128H9.76465V25.3777C9.76465 25.7089 9.80105 25.9468 9.87305 26.0873C9.94505 26.2292 10.0625 26.2989 10.2305 26.2989C10.373 26.2989 10.5131 26.2548 10.6436 26.1648C10.7756 26.0762 10.8691 25.9623 10.9336 25.8249V19.9128H12.583V27.3544H12.5801H11.291L11.1504 26.442H11.1123C10.7613 27.132 10.2366 27.4766 9.53613 27.4766C9.05013 27.4766 8.69487 27.3142 8.46387 26.9906C8.23287 26.667 8.11523 26.16 8.11523 25.4731V19.9128ZM21.1113 20.9026C20.9358 20.9026 20.8057 20.9568 20.7217 21.0606C20.6377 21.1659 20.5817 21.3383 20.5547 21.5764C20.5262 21.8145 20.5137 22.1762 20.5137 22.6616V23.1953H21.7178V22.6616C21.7178 22.1838 21.7024 21.8237 21.6709 21.5764C21.6409 21.3291 21.582 21.1554 21.498 21.0547C21.414 20.9539 21.2868 20.9026 21.1113 20.9026ZM15.8877 20.9563C15.7287 20.9563 15.5832 21.0203 15.4482 21.1501C15.3132 21.2798 15.2166 21.4465 15.1611 21.6479V25.8726C15.2331 26.0023 15.3269 26.0991 15.4424 26.1648C15.5579 26.2289 15.6809 26.2632 15.8174 26.2632C15.9929 26.2632 16.1299 26.1991 16.2334 26.0694C16.3369 25.9396 16.4126 25.7218 16.4561 25.4135C16.4996 25.1066 16.5205 24.6793 16.5205 24.1374V23.1804C16.5205 22.5973 16.5038 22.1488 16.4678 21.8328C16.4318 21.5168 16.3673 21.2888 16.2773 21.156C16.1858 21.0232 16.0557 20.9563 15.8877 20.9563Z" fill="#2B1E23"/>
</svg>
